<svg xmlns="http://www.w3.org/2000/svg" xmlns:xlink="http://www.w3.org/1999/xlink" xmlns:lucid="lucid" width="1755.7" height="880"><g transform="translate(-24.296296296296298 -80)" lucid:page-tab-id="0_0"><path d="M260 166c0-3.3 2.7-6 6-6h1448c3.3 0 6 2.7 6 6v428c0 3.3-2.7 6-6 6H266c-3.3 0-6-2.7-6-6z" fill="#fff" fill-opacity="0"/><path d="M276.45 160h8.96m5.98 0h8.95m5.98 0h8.96m5.97 0h8.96m5.96 0h8.96m5.97 0h8.95m5.97 0h8.95m5.97 0h8.96m5.97 0h8.96m5.97 0h8.96m5.97 0h8.95m5.98 0h8.95m5.98 0h8.96m5.97 0h8.97m5.97 0h8.96m5.97 0h8.95m5.97 0h8.95m5.97 0h8.96m5.97 0h8.96m5.98 0h8.96m5.97 0h8.96m5.97 0h8.96m5.96 0h8.96m5.97 0h8.95m5.97 0h8.95m5.98 0h8.95m5.97 0h8.96m5.97 0h8.96m5.97 0h8.96m5.96 0h8.95m5.98 0h8.96m5.97 0h8.97m5.97 0h8.96m5.97 0h8.95m5.98 0h8.95m5.97 0h8.96m5.97 0h8.96m5.98 0h8.96m5.97 0h8.96m5.98 0h8.95m5.96 0h8.96m5.97 0h8.95m5.97 0h8.96m5.97 0h8.95m5.97 0h8.96m5.97 0h8.96m5.97 0h8.96m5.96 0H987m6 0h8.94m5.97 0h8.97m5.97 0h8.96m5.97 0h8.96m5.97 0h8.95m5.97 0h8.96m5.97 0h8.96m5.98 0h8.96m5.97 0h8.96m5.98 0h8.95m5.96 0h8.96m5.97 0h8.95m5.97 0h8.96m5.97 0h8.95m5.98 0h8.95m5.97 0h8.96m5.97 0h8.96m5.96 0h8.96m5.97 0h8.94m5.97 0h8.97m5.97 0h8.96m5.97 0h8.96m5.97 0h8.95m5.98 0h8.95m5.97 0h8.96m5.98 0h8.96m5.97 0h8.97m5.97 0h8.95m5.96 0h8.96m5.97 0h8.95m5.97 0h8.96m5.97 0h8.96m5.98 0h8.95m5.97 0h8.96m5.97 0h8.96m5.96 0h8.96m5.97 0h8.94m5.98 0h8.95m5.97 0h8.96m5.97 0h8.96m5.97 0h8.96m5.97 0h8.95m5.97 0h8.96m5.98 0h8.96m5.97 0h8.97m5.97 0h8.95m5.97 0h8.95m5.97 0h8.95m5.97 0h4.48l3.03.82 2.15 2.15.82 3.03v4.43m0 5.9v8.86m0 5.9v8.84m0 5.9v8.86m0 5.9v8.86m0 5.9v8.86m0 5.9v8.86m0 5.9v8.86m0 5.9v8.86m0 5.9v8.86m0 5.9V318m0 5.92v8.85m0 5.9v8.86m0 5.9v8.86m0 5.9v8.85m0 5.9v8.86m0 5.9v8.87m0 5.9v8.85m0 5.9v8.86m0 5.9v8.86m0 5.9v8.86m0 5.9v8.86m0 5.9v8.86m0 5.9v8.86m0 5.9v8.85m0 5.9v8.86m0 5.9v8.85m0 5.9v8.86m0 5.9v8.87m0 5.9V594l-.82 3.03-2.15 2.15-3.03.82h-4.48m-5.97 0h-8.96m-5.98 0h-8.95m-5.98 0h-8.96m-5.97 0h-8.96m-5.96 0h-8.96m-5.97 0h-8.95m-5.97 0h-8.95m-5.97 0h-8.96m-5.97 0h-8.96m-5.97 0h-8.96m-5.97 0h-8.95m-5.98 0h-8.95m-5.98 0h-8.96m-5.97 0h-8.97m-5.97 0h-8.96m-5.97 0h-8.95m-5.97 0h-8.95m-5.97 0h-8.96m-5.97 0h-8.96m-5.98 0h-8.96m-5.97 0h-8.96m-5.97 0h-8.96m-5.96 0h-8.96m-5.97 0h-8.95m-5.97 0h-8.95m-5.98 0h-8.95m-5.97 0h-8.96m-5.97 0h-8.96m-5.97 0h-8.96m-5.96 0h-8.95m-5.98 0h-8.96m-5.97 0h-8.97m-5.97 0h-8.96m-5.97 0h-8.95m-5.98 0h-8.95m-5.97 0h-8.96m-5.97 0h-8.96m-5.98 0h-8.96m-5.97 0h-8.96m-5.98 0h-8.95m-5.96 0h-8.96m-5.97 0h-8.95m-5.97 0h-8.96m-5.97 0h-8.95m-5.97 0h-8.96m-5.97 0h-8.96m-5.97 0h-8.96m-5.96 0H993m-6 0h-8.94m-5.97 0h-8.97m-5.97 0h-8.96m-5.97 0h-8.96m-5.97 0h-8.95m-5.97 0h-8.96m-5.97 0h-8.96m-5.98 0h-8.96m-5.97 0h-8.96m-5.98 0h-8.95m-5.96 0h-8.96m-5.97 0h-8.95m-5.97 0h-8.96m-5.97 0H784m-5.98 0h-8.95m-5.97 0h-8.96m-5.97 0h-8.96m-5.96 0h-8.96m-5.97 0h-8.94m-5.97 0h-8.97m-5.97 0h-8.96m-5.97 0h-8.96m-5.97 0h-8.95m-5.98 0h-8.95m-5.97 0h-8.96m-5.98 0h-8.96m-5.97 0h-8.97m-5.97 0H575m-5.96 0h-8.96m-5.97 0h-8.95m-5.97 0h-8.96m-5.97 0h-8.96m-5.98 0h-8.95m-5.97 0h-8.96m-5.97 0h-8.96m-5.96 0h-8.96m-5.97 0h-8.94m-5.98 0h-8.95m-5.97 0h-8.96m-5.97 0h-8.96m-5.97 0h-8.96m-5.97 0h-8.95m-5.97 0h-8.96m-5.98 0h-8.96m-5.97 0h-8.97m-5.97 0h-8.95m-5.97 0h-8.95m-5.97 0h-8.95m-5.97 0H266l-3.03-.82-2.15-2.15L260 594v-4.43m0-5.9v-8.86m0-5.9v-8.84m0-5.9v-8.86m0-5.9v-8.86m0-5.9v-8.86m0-5.9v-8.86m0-5.9v-8.86m0-5.9v-8.86m0-5.9v-8.86m0-5.9V442m0-5.92v-8.85m0-5.9v-8.86m0-5.9v-8.86m0-5.9v-8.85m0-5.9v-8.86m0-5.9v-8.87m0-5.9v-8.85m0-5.9v-8.86m0-5.9v-8.86m0-5.9v-8.86m0-5.9v-8.86m0-5.9v-8.86m0-5.9v-8.86m0-5.9v-8.85m0-5.9v-8.86m0-5.9v-8.85m0-5.9v-8.86m0-5.9v-8.87m0-5.9V166l.82-3.03 2.15-2.15L266 160h4.48" stroke="#147eba" stroke-width="3" fill="none"/><path d="M260 160h56v56h-56v-56z" stroke="#fff" stroke-opacity="0" fill="#147eba"/><path d="M303.84 189.36l-5.96-7.36 5.96-7.4h-26.17v-2.08c.98-.32 1.62-1.16 1.62-2.2-.1-1.15-1.03-2.02-2.17-2.14-1.3-.08-2.44.87-2.53 2.15 0 1.03.63 1.87 1.58 2.2v33.88h-4.02v1.6h9.44v-1.6h-3.93v-17.04zm-26.96-19.75c.4-.03.76.33.76.73 0 .44-.32.75-.73.75-.4.04-.75-.3-.75-.7v-.05c0-.4.32-.72.73-.72zm23.6 6.62l-4.66 5.78 4.66 5.73h-22.8v-11.5z" stroke="#fff" stroke-opacity="0" fill="#fff"/><use xlink:href="#a" transform="matrix(1,0,0,1,331,180) translate(0 14.4)"/><use xlink:href="#b" transform="matrix(1,0,0,1,331,180) translate(43.900000000000006 14.4)"/><path d="M180 106c0-3.3 2.7-6 6-6h1568c3.3 0 6 2.7 6 6v828c0 3.3-2.7 6-6 6H186c-3.3 0-6-2.7-6-6z" stroke="#232f3e" stroke-width="3" fill="#fff" fill-opacity="0"/><path d="M180 100h56v56h-56v-56z" stroke="#fff" stroke-opacity="0" fill="#232f3e"/><path d="M198.22 125.87c-.04.48.05.87.17 1.34.1.4.28.7.48 1.07.04.1.08.22.08.34 0 .2-.12.36-.28.46l-.95.62c-.12.08-.25.13-.37.13-.16 0-.33-.06-.45-.2-.2-.2-.36-.43-.52-.7-.17-.25-.3-.53-.46-.86-1.1 1.37-2.62 2.1-4.4 2.06-1.14.06-2.12-.3-2.95-1.08-.78-.8-1.15-1.76-1.1-2.85-.05-1.23.4-2.28 1.35-3.08 1.07-.85 2.3-1.23 3.66-1.16.57 0 1.02.02 1.6.1.57.1 1.1.2 1.72.33v-1.1c.08-.88-.16-1.67-.7-2.37-.74-.56-1.56-.8-2.46-.7-.53 0-1.03.07-1.6.2-.58.13-1.03.3-1.6.5l-.5.2h-.24c-.2 0-.33-.16-.33-.45v-.75c0-.18.04-.34.12-.5.12-.16.24-.26.4-.33.66-.3 1.2-.5 1.9-.67.77-.2 1.47-.3 2.3-.28 1.47-.13 2.78.26 3.9 1.2.94 1.05 1.35 2.28 1.22 3.67zm-6.07 2.28c.57 0 1.06-.1 1.6-.28.57-.2 1.02-.5 1.44-.96.23-.27.4-.56.48-.93.12-.45.16-.84.16-1.3V124c-.53-.1-.94-.17-1.43-.2H193c-.8-.08-1.55.12-2.2.58-.54.45-.8 1.04-.75 1.73-.04.6.13 1.16.54 1.6.44.38.97.52 1.55.45zm12 1.6c-.22 0-.42-.03-.6-.15-.15-.17-.23-.36-.32-.6l-3.5-11.5-.1-.62c0-.24.1-.37.36-.37h1.47c.2 0 .37.04.57.15.17.18.25.37.3.6l2.5 9.96 2.38-9.93c0-.24.08-.44.28-.6.17-.12.37-.16.58-.15h1.2c.24 0 .4.03.6.15.17.18.25.36.3.6l2.33 9.94 2.56-10c.04-.2.16-.4.33-.58.15-.1.36-.17.56-.14h1.4c.16 0 .33.1.37.3v.31s0 .2-.12.35l-3.6 11.53c-.05.22-.13.42-.3.6-.2.1-.36.14-.57.13h-1.27c-.25.04-.45-.02-.62-.15-.16-.16-.25-.36-.3-.6l-2.3-9.6-2.3 9.6c-.03.24-.1.44-.27.6-.2.13-.4.2-.62.16zm19.2.38c-.82 0-1.5-.07-2.3-.25-.65-.13-1.14-.3-1.72-.6-.2-.1-.37-.23-.45-.42-.08-.14-.12-.28-.12-.43v-.75c0-.3.12-.46.32-.46h.3l.36.16c.58.23 1.03.4 1.6.5.62.14 1.15.2 1.8.2.8.05 1.5-.1 2.2-.5.48-.3.77-.8.72-1.4.05-.4-.12-.76-.36-1.04-.46-.4-.95-.65-1.52-.8l-2.18-.68c-.94-.25-1.73-.73-2.38-1.5-.5-.65-.74-1.35-.74-2.18 0-.6.12-1.08.4-1.6.3-.5.63-.9 1.08-1.22.5-.38.98-.6 1.6-.78.66-.18 1.2-.26 1.9-.25.32-.03.6-.03.97 0l1 .16.8.22.67.26c.16.1.28.22.45.38.08.15.12.3.12.5v.7c0 .32-.12.47-.37.47-.2-.03-.37-.08-.57-.18-.95-.42-1.8-.6-2.88-.58-.7-.04-1.3.1-1.97.4-.5.3-.74.8-.7 1.36 0 .4.13.76.46 1.05.5.4.98.65 1.6.82l2.1.67c.94.24 1.67.7 2.3 1.44.48.64.7 1.3.7 2.1 0 .63-.13 1.17-.38 1.73-.3.55-.62.95-1.1 1.32-.5.4-1 .66-1.6.84-.75.23-1.4.33-2.15.34zM226.1 137.48c-5.6 3.82-11.36 5.58-18.15 5.56-8.54.05-15.82-2.74-22.16-8.45-.5-.42 0-1 .48-.68 7.07 4.05 14.03 5.9 22.2 5.9 6.1-.04 11.3-1.1 16.93-3.47.83-.35 1.52.55.7 1.13z" stroke="#fff" stroke-opacity="0" fill="#fff"/><path d="M228.16 135.2c-.64-.82-4.16-.38-5.75-.2-.46 0-.53-.36-.1-.66 2.8-1.98 7.42-1.4 8-.74.6.67-.14 5.28-2.78 7.5-.4.32-.78.13-.6-.3.54-1.52 1.86-4.83 1.24-5.6z" stroke="#fff" stroke-opacity="0" fill="#fff"/><use xlink:href="#c" transform="matrix(1,0,0,1,251,120) translate(0 14.4)"/><use xlink:href="#d" transform="matrix(1,0,0,1,251,120) translate(45.3 14.4)"/><path d="M350.95 375.1v-1.4c.07-18.67 15.2-33.74 33.8-33.7 17.76.04 32.23 13.66 33.5 31.4l-3.42.2c-.87-16.26-14.34-28.83-30.56-28.65-16.76.2-30.16 13.97-29.96 30.76v1.27z" stroke="#fff" stroke-opacity="0" fill="#d6242d"/><path d="M352.3 376.14v-2.23c.05-9.08 3.93-16.84 11.1-22.3l.24-.13c5-2.95 9.94-4.28 15.78-4.28 13.54-.18 25.05 8.24 29.04 21.2l-3.26.93c-3.54-11.52-13.8-18.98-25.83-18.78-5.12 0-9.55 1.16-14 3.76-6.34 4.84-9.7 11.62-9.7 19.6v2.15zM354.54 385.7l-.46-3.4c3.17-.3 5.8-1.18 8.5-2.86 5.67-4.1 17.54-5.55 24-5.12 4.42.67 8.04 1.8 12 3.8 1.78.87 3.36 1.48 5.2 2.02 3.04.1 5.54-.04 8.57-.48h.27c1-.1 1.97-.2 2.96-.27h.93v-6.16h-.32l-3.1.28-2.3.2-.27-3.4 2.3-.2 2.98-.28.8-.1c1.64-.25 3.16.86 3.35 2.47.07.17.07.32.07.5v6.96c0 1.57-1.25 2.84-2.77 2.93h-.26l-1.06.07-2.9.27h-.25c-3.3.48-6.13.63-9.43.47-2.24-.52-4.08-1.18-6.13-2.2-3.63-1.76-6.93-2.78-10.88-3.4-5.8-.44-16.88.87-21.76 4.44-3.16 2-6.26 3.1-10.02 3.47zm62.43-6.53z" stroke="#fff" stroke-opacity="0" fill="#d6242d"/><path d="M401.03 373.68c-.97-.3-2.05-.7-3.26-1.18-4.34-1.97-8.4-2.84-13.16-2.8-8.26.48-12.3.95-15.33 1.83l-.94-3.28c3.4-.95 7.53-1.47 16.08-1.96 5.3-.08 9.77.85 14.58 3 1.14.47 2.2.84 3 1.08zM350.04 386c-3.66 0-7.25-.66-9.1-2.52-.74-.7-1.06-1.6-.9-2.6.4-2.17 3.2-3.4 7.05-5.12 1.7-.7 3.27-1.44 4.73-2.24l1.7 3c-1.6.88-3.4 1.7-5 2.38-1.77.7-3.2 1.4-4.82 2.38 1.54 1.1 5.4 1.7 10.46 1l.45 3.43c-1.6.2-2.96.3-4.56.3z" stroke="#fff" stroke-opacity="0" fill="#d6242d"/><path d="M409.5 376.72h-6.8c-1.6 0-2.9-1.3-2.9-2.92v-3.74c0-1.6 1.3-2.9 2.9-2.9h6.8c1.6 0 2.9 1.3 2.9 2.9v3.74c0 1.6-1.3 2.9-2.9 2.92zm-6.3-3.42h5.8v-2.66h-5.8zM365.5 381.36c-5.34-.04-9.88-1.7-14-5.12l2.28-2.48c3.52 2.86 7.4 4.22 11.9 4.2z" stroke="#fff" stroke-opacity="0" fill="#d6242d"/><path d="M385.76 340h-1.04c-18.56-.05-33.68 15.04-33.76 33.67v.32c-1.2.6-2.48 1.2-3.84 1.74-3.92 1.75-6.64 3-7.12 5.15-.08.96.24 1.88.96 2.57 1.84 1.9 5.44 2.53 9.04 2.53 1.68 0 3.04-.1 4.64-.28v-.04c3.68-.37 6.8-1.43 9.92-3.45 4.88-3.54 15.92-4.88 21.76-4.42 3.92.6 7.28 1.62 10.88 3.42 2.08 1 3.92 1.65 6.08 2.2 3.36.14 6.16 0 9.44-.46h.32l2.88-.27 1.04-.1h.24c1.6-.1 2.8-1.38 2.8-2.95v-6.94c0-1.28-.72-2.34-1.92-2.8-1.92-16.8-15.52-29.35-32.32-29.9zm-.72 3c15.36.22 27.92 11.63 29.68 26.95l-1.92.18-2.32.18.32 3.42 2.32-.2 3.04-.3h.32v6.16h-.96c-.88.1-1.92.18-2.88.27h-.32c-2.96.46-5.52.6-8.48.5-1.92-.54-3.52-1.14-5.28-2.02-3.92-1.97-7.6-3.12-12-3.8-5.52-.38-15.2.68-21.36 3.62-4.08-.1-7.6-1.3-10.88-3.77v-.5c-.16-16.75 13.2-30.5 29.92-30.74.32 0 .56 0 .8.05zm-32.48 34.03c2.4 1.8 4.8 2.9 7.68 3.63-2.08.92-3.92 1.43-6.16 1.6v.06c-5.04.7-8.8.05-10.4-1 1.68-1.02 3.12-1.7 4.8-2.4 1.36-.56 2.72-1.2 4.08-1.9z" stroke="#fff" stroke-opacity="0" fill="#fff" fill-opacity="0"/><use xlink:href="#e" transform="matrix(1,0,0,1,310,395) translate(16.296296296296298 17.77777777777778)"/><use xlink:href="#f" transform="matrix(1,0,0,1,310,395) translate(-25.92592592592591 44.44444444444444)"/><use xlink:href="#g" transform="matrix(1,0,0,1,310,395) translate(24.413580246913583 71.11111111111111)"/><use xlink:href="#h" transform="matrix(1,0,0,1,310,395) translate(70.03086419753086 71.11111111111111)"/><path d="M591.8 376.43h-12.62c-.93 0-1.7-.76-1.7-1.7v-12.77c0-.94.77-1.7 1.7-1.7h12.62c.93 0 1.7.76 1.7 1.7v12.77c0 .94-.77 1.7-1.7 1.7zm-10.9-3.4h9.2v-9.36h-9.2zM608.53 370.12c-4.92.02-8.93-3.96-8.95-8.9-.02-4.9 3.96-8.92 8.88-8.94 4.93-.02 8.94 3.96 8.96 8.88v.04c.02 4.92-3.96 8.9-8.9 8.92zm0-14.43h-.03c-3.05 0-5.5 2.45-5.5 5.5s2.45 5.5 5.5 5.5 5.5-2.45 5.5-5.5c.03-3.03-2.43-5.5-5.47-5.5zM590.18 354.08h-15.94c-.64 0-1.18-.3-1.5-.86-.3-.54-.3-1.16 0-1.7l8-13.32c.48-.8 1.53-1.05 2.34-.57.23.15.42.32.56.57l8 13.3c.3.56.3 1.18 0 1.72-.32.53-.84.85-1.46.86zm-12.94-3.4h9.94l-4.97-8.3z" stroke="#fff" stroke-opacity="0" fill="#3f8624"/><path d="M596.04 386c-10.83 0-28.1-2.46-28.3-9.1L560 319.7c-.14-.97.43-1.86 1.37-2.06.94-.14 1.88.47 2.1 1.43.8 3.28 13.65 7.86 32.64 7.86 19 0 31.87-4.58 32.66-7.86.22-.96 1.16-1.57 2.1-1.43.94.2 1.5 1.1 1.37 2.05l-7.87 57.2c0 2.26-2.1 4.18-6 5.75-1.8.68-3.4 1.16-5.27 1.57-5.93 1.3-11 1.78-17.06 1.78zm-31.92-61.66l6.93 52.3v.2c0 2.05 9.75 5.8 24.92 5.8 5.78.08 10.62-.47 16.25-1.63 1.73-.4 3.18-.88 4.84-1.56 3.1-1.23 3.83-2.33 3.83-2.67v-.14l7.07-52.23c-6.58 3.9-19.87 6.02-32 6.02-12.13 0-25.28-2.2-31.85-6.08z" stroke="#fff" stroke-opacity="0" fill="#3f8624"/><path d="M596.04 330.32c-16.08 0-34.18-3.65-35.98-10.4V318.98v-.23c0-7.52 19.04-12.77 36.12-12.77 17.1 0 35.98 5.25 35.98 12.77v.22l-.07.7v.2c-1.8 6.77-19.9 10.42-36.06 10.42zm-32.66-11.2c1.08 3.3 13.84 7.8 32.66 7.8 18.82 0 31.58-4.5 32.66-7.8v-.45c-.14-3.3-13.63-9.26-32.66-9.26-19.04 0-32.45 5.96-32.74 9.27zM632.23 353.86c-8.07 0-25.83-8-36.92-13.46l1.5-3.06c15.3 7.5 33.36 14.5 36.46 13.18-.24-.48-1.4-2.02-6.83-4.97l-.24-.17 1.68-2.96.25.17c5.47 2.98 8.07 5.3 8.53 7.5.16.93-.08 1.83-.7 2.57-1.04.95-2.32 1.36-3.73 1.2z" stroke="#fff" stroke-opacity="0" fill="#3f8624"/><path d="M596.05 342.6c-2.03 0-3.7-1.66-3.7-3.7s1.67-3.7 3.7-3.7c2.04 0 3.7 1.66 3.7 3.7s-1.66 3.7-3.7 3.7zm0-4c-.17 0-.3.14-.3.3 0 .33.6.33.6 0v-.04c0-.16-.13-.28-.3-.28z" stroke="#fff" stroke-opacity="0" fill="#3f8624"/><use xlink:href="#i" transform="matrix(1,0,0,1,530,395) translate(-5.5123456790123555 17.77777777777778)"/><use xlink:href="#j" transform="matrix(1,0,0,1,530,395) translate(17.882716049382708 44.44444444444444)"/><use xlink:href="#k" transform="matrix(1,0,0,1,530,395) translate(51.216049382716044 44.44444444444444)"/><path d="M879.26 386h-54.52c-2.63 0-4.74-2.16-4.74-4.8v-70.4c0-2.64 2.1-4.8 4.74-4.8h54.52c2.63 0 4.74 2.16 4.74 4.8v70.4c0 2.64-2.1 4.8-4.74 4.8zm-54.52-76.56c-.77 0-1.35.56-1.35 1.36v70.4c0 .8.63 1.36 1.34 1.36h54.52c.77 0 1.35-.56 1.35-1.36v-70.4c0-.8-.63-1.36-1.34-1.36z" stroke="#fff" stroke-opacity="0" fill="#d6242d"/><path d="M837.68 357.27c-.44 0-.8-.14-1.1-.4l-3.15-2.7c-.38-.33-.6-.78-.6-1.3v-18.16c-6.1-2.68-8.87-9.8-6.2-15.88 2.68-6.12 9.8-8.86 15.9-6.2 6.1 2.7 8.86 9.8 6.2 15.88-1.3 2.88-3.3 4.93-6.2 6.2v1.3l2.2 2.18c.64.7.64 1.74 0 2.42l-2.2 2.2v.4l2.2 2.2c.64.64.64 1.73 0 2.37l-2.2 2.2v2c0 .4-.13.82-.42 1.14l-3.15 3.57c-.33.42-.77.6-1.27.6zm-1.45-5.12l1.28 1.1 1.62-1.83v-2.14c0-.46.17-.87.5-1.2l1.48-1.5-1.47-1.5c-.34-.32-.5-.73-.5-1.2v-1.77c0-.5.16-.86.5-1.22l1.47-1.46-1.47-1.5c-.34-.33-.5-.74-.5-1.2v-3.2c0-.77.45-1.4 1.17-1.64 2.78-.87 4.73-2.83 5.62-5.6 1.45-4.54-1.06-9.42-5.62-10.88-4.55-1.42-9.4 1.1-10.87 5.6-1.44 4.58 1.06 9.42 5.62 10.88.72.23 1.18.87 1.18 1.65zm1.45-26.7c-2.68 0-4.87-2.2-4.87-4.85.03-2.7 2.2-4.88 4.88-4.88 2.62 0 4.77 2.1 4.84 4.75.03 2.7-2.1 4.88-4.77 4.88h-.07zm0-6.3c-.8 0-1.45.68-1.45 1.45 0 .83.65 1.46 1.45 1.46.8 0 1.44-.63 1.44-1.46v-.1c0-.76-.65-1.4-1.44-1.4zM875.93 379.62h-28.7c-.94 0-1.72-.77-1.72-1.7V354.1c0-.5.18-.9.5-1.23.35-.32.74-.5 1.22-.5h28.7c.5 0 .88.18 1.23.53.32.33.48.7.48 1.2v23.83c0 .92-.77 1.7-1.7 1.7zm-27-3.4h25.3v-20.54h-25.3z" stroke="#fff" stroke-opacity="0" fill="#d6242d"/><path d="M871.23 354.2h-3.4v-6.5c.12-3.58-2.64-6.6-6.24-6.8-3.6.15-6.42 3.18-6.3 6.8v6.62h-3.4v-6.6c-.12-5.5 4.2-10.06 9.7-10.2 5.46.2 9.75 4.73 9.6 10.2zM861.58 367.9c-2.63-.16-4.65-2.44-4.5-5.07.16-2.44 2.07-4.35 4.5-4.5 2.64.16 4.65 2.44 4.5 5.07-.15 2.44-2.06 4.35-4.5 4.5zm0-6.15c-.64.07-1.14.56-1.2 1.2-.1.77.45 1.45 1.2 1.53h.06c.73-.02 1.32-.63 1.3-1.37 0-.37-.12-.7-.4-.96-.26-.27-.58-.4-.96-.4z" stroke="#fff" stroke-opacity="0" fill="#d6242d"/><path d="M859.88 365.6h3.4v7.2h-3.4v-7.2z" stroke="#fff" stroke-opacity="0" fill="#d6242d"/><use xlink:href="#l" transform="matrix(1,0,0,1,790,395) translate(-43.43209876543207 17.77777777777778)"/><use xlink:href="#m" transform="matrix(1,0,0,1,790,395) translate(15.73456790123457 44.44444444444444)"/><use xlink:href="#n" transform="matrix(1,0,0,1,790,395) translate(69.99382716049382 44.44444444444444)"/><path d="M1602.4 273.62h-16c-.95 0-1.7-.77-1.7-1.7v-35.1c0-.94.75-1.7 1.7-1.7h16c.96 0 1.7.76 1.7 1.7v35.1c0 .93-.74 1.7-1.7 1.7zm-14.3-3.4h12.6V238.5h-12.6zM1628 273.62h-16c-.95 0-1.7-.77-1.7-1.7v-27.13c0-.96.75-1.72 1.7-1.72h16c.95 0 1.7.76 1.7 1.7v27.13c0 .95-.75 1.72-1.7 1.72zm-14.3-3.4h12.6v-23.75h-12.6zM1580 276.6h80v3.4h-80v-3.4zM1654.4 225.75h-17.6c-2.27 0-4.1-1.85-4.1-4.12v-17.5c0-2.28 1.83-4.13 4.1-4.13h17.6c2.27 0 4.1 1.83 4.1 4.1v17.52c0 2.28-1.83 4.13-4.1 4.13zm-17.6-22.35c-.4.03-.7.33-.7.72v17.54c0 .38.3.7.7.7h17.6c.38-.03.7-.34.7-.73v-17.5c0-.4-.32-.7-.7-.73zM1653.6 273.62h-16c-.96 0-1.7-.77-1.7-1.7v-41.48c0-.95.74-1.7 1.7-1.7h16c.95 0 1.7.75 1.7 1.7v41.47c0 .95-.75 1.72-1.7 1.72zm-14.3-3.4h12.6v-38.08h-12.6z" stroke="#fff" stroke-opacity="0" fill="#cd2264"/><path d="M1586.53 245.33h50.4v32.9h-50.4v-32.9z" stroke="#fff" stroke-opacity="0" stroke-width=".21" fill="#fff" fill-opacity="0"/><path d="M1637.68 222.12h15.87v55.84h-15.87v-55.84z" stroke="#fff" stroke-opacity="0" stroke-width=".16" fill="#fff" fill-opacity="0"/><use xlink:href="#o" transform="matrix(1,0,0,1,1550,289) translate(9.567901234567891 17.77777777777778)"/><use xlink:href="#p" transform="matrix(1,0,0,1,1550,289) translate(41.66666666666667 44.44444444444444)"/><path d="M1291.82 280h-57.48c-.85 0-1.57-.72-1.57-1.6v-76.8c0-.88.72-1.6 1.57-1.6h57.48c.85 0 1.58.72 1.58 1.6v76.8c0 .88-.73 1.6-1.58 1.6zm-55.84-3.2h54.2v-73.6H1236zM1229.57 280h-4.6c-2.74 0-4.97-2.24-4.97-4.96v-70c0-2.8 2.25-5.04 5-5.04h4.57v3.2H1225c-1 0-1.8.8-1.8 1.84v69.92c0 1.04.8 1.84 1.8 1.84h4.57z" stroke="#fff" stroke-opacity="0" fill="#693cc5"/><path d="M1242.34 208h43.08v3.2h-43.08V208zM1242.34 214.4h43.08v3.2h-43.08v-3.2zM1242.34 264h43.08v3.2h-43.08V264zM1242.34 270.4h43.08v3.2h-43.08v-3.2zM1263.08 260c-1.53-.03-2.8-.45-4.1-1.3-.48-.33-.76-.8-.76-1.36v-5.5l-12.5-24.9 2.84-1.46 12.75 25.25c.1.2.18.45.18.73v4.9c1.05.6 2.16.6 3.2 0v-4.97c0-.3.07-.5.18-.74l12.75-25.25 2.86 1.46-12.58 24.9v5.58c0 .55-.28 1-.7 1.3-1.28.9-2.57 1.33-4.1 1.36z" stroke="#fff" stroke-opacity="0" fill="#693cc5"/><path d="M1263.16 231.65c-2.9 0-17.55-.26-17.55-5.32 0-5.05 14.58-5.3 17.56-5.3 3 0 17.55.26 17.55 5.3s-14.62 5.32-17.54 5.32zm-14-5.32c1.47.87 6.28 2.1 14 2.1 7.73 0 12.57-1.23 14-2.1-1.43-.85-6.24-2.1-14-2.1s-12.53 1.25-14 2.1z" stroke="#fff" stroke-opacity="0" fill="#693cc5"/><path d="M1224.5 201.7h64.56c1.9 0 2.8.9 2.8 2.76v71.4c0 1.84-.9 2.76-2.8 2.76h-64.55c-1.88 0-2.8-.92-2.8-2.77v-71.4c0-1.84.92-2.76 2.8-2.76z" stroke="#fff" stroke-opacity="0" stroke-width=".45" fill="#fff" fill-opacity="0"/><use xlink:href="#q" transform="matrix(1,0,0,1,1190,289) translate(13.327160493827158 17.77777777777778)"/><use xlink:href="#r" transform="matrix(1,0,0,1,1190,289) translate(-28.524691358024683 44.44444444444444)"/><use xlink:href="#s" transform="matrix(1,0,0,1,1190,289) translate(31.25925925925926 71.11111111111111)"/><use xlink:href="#t" transform="matrix(1,0,0,1,1190,289) translate(23.882716049382715 97.77777777777777)"/><path d="M1430.95 269.1v-1.4c.07-18.67 15.2-33.74 33.8-33.7 17.76.04 32.23 13.66 33.5 31.4l-3.42.2c-.87-16.26-14.34-28.83-30.56-28.65-16.76.2-30.16 13.97-29.96 30.76v1.27z" stroke="#fff" stroke-opacity="0" fill="#d6242d"/><path d="M1432.3 270.14v-2.23c.05-9.08 3.93-16.84 11.1-22.3l.24-.13c5-2.95 9.94-4.28 15.78-4.28 13.54-.18 25.05 8.24 29.04 21.2l-3.26.93c-3.54-11.52-13.8-18.98-25.83-18.78-5.12 0-9.55 1.16-14 3.76-6.34 4.84-9.7 11.62-9.7 19.6v2.15zM1434.54 279.7l-.46-3.4c3.17-.3 5.8-1.18 8.5-2.86 5.67-4.1 17.54-5.55 24-5.12 4.42.67 8.04 1.8 12 3.8 1.78.87 3.36 1.48 5.2 2.02 3.04.1 5.54-.04 8.57-.48h.27c1-.1 1.97-.2 2.96-.27h.93v-6.16h-.32l-3.1.28-2.3.2-.27-3.4 2.3-.2 2.98-.28.8-.1c1.64-.25 3.16.86 3.35 2.47.07.17.07.32.07.5v6.96c0 1.57-1.25 2.84-2.77 2.93h-.26l-1.06.07-2.9.27h-.25c-3.3.48-6.13.63-9.43.47-2.24-.52-4.08-1.18-6.13-2.2-3.63-1.76-6.93-2.78-10.88-3.4-5.8-.44-16.88.87-21.76 4.44-3.16 2-6.26 3.1-10.02 3.47zm62.43-6.53z" stroke="#fff" stroke-opacity="0" fill="#d6242d"/><path d="M1481.03 267.68c-.97-.3-2.05-.7-3.26-1.18-4.34-1.97-8.4-2.84-13.16-2.8-8.26.48-12.3.95-15.33 1.83l-.94-3.28c3.4-.95 7.53-1.47 16.08-1.96 5.3-.08 9.77.85 14.58 3 1.14.47 2.2.84 3 1.08zM1430.04 280c-3.66 0-7.25-.66-9.1-2.52-.74-.7-1.06-1.6-.9-2.6.4-2.17 3.2-3.4 7.05-5.12 1.7-.7 3.27-1.44 4.73-2.24l1.7 3c-1.6.88-3.4 1.7-5 2.38-1.77.7-3.2 1.4-4.82 2.38 1.54 1.1 5.4 1.7 10.46 1l.45 3.43c-1.6.2-2.96.3-4.56.3z" stroke="#fff" stroke-opacity="0" fill="#d6242d"/><path d="M1489.5 270.72h-6.8c-1.6 0-2.9-1.3-2.9-2.92v-3.74c0-1.6 1.3-2.9 2.9-2.9h6.8c1.6 0 2.9 1.3 2.9 2.9v3.74c0 1.6-1.3 2.9-2.9 2.92zm-6.3-3.42h5.8v-2.66h-5.8zM1445.5 275.36c-5.34-.04-9.88-1.7-14-5.12l2.28-2.48c3.52 2.86 7.4 4.22 11.9 4.2z" stroke="#fff" stroke-opacity="0" fill="#d6242d"/><path d="M1465.76 234h-1.04c-18.56-.05-33.68 15.04-33.76 33.67v.32c-1.2.6-2.48 1.2-3.84 1.74-3.92 1.75-6.64 3-7.12 5.15-.08.96.24 1.88.96 2.57 1.84 1.9 5.44 2.53 9.04 2.53 1.68 0 3.04-.1 4.64-.28v-.04c3.68-.37 6.8-1.43 9.92-3.45 4.88-3.54 15.92-4.88 21.76-4.42 3.92.6 7.28 1.62 10.88 3.42 2.08 1 3.92 1.65 6.08 2.2 3.36.14 6.16 0 9.44-.46h.32l2.88-.27 1.04-.1h.24c1.6-.1 2.8-1.38 2.8-2.95v-6.94c0-1.28-.72-2.34-1.92-2.8-1.92-16.8-15.52-29.35-32.32-29.9zm-.72 3c15.36.22 27.92 11.63 29.68 26.95l-1.92.18-2.32.18.32 3.42 2.32-.2 3.04-.3h.32v6.16h-.96c-.88.1-1.92.18-2.88.27h-.32c-2.96.46-5.52.6-8.48.5-1.92-.54-3.52-1.14-5.28-2.02-3.92-1.97-7.6-3.12-12-3.8-5.52-.38-15.2.68-21.36 3.62-4.08-.1-7.6-1.3-10.88-3.77v-.5c-.16-16.75 13.2-30.5 29.92-30.74.32 0 .56 0 .8.05zm-32.48 34.03c2.4 1.8 4.8 2.9 7.68 3.63-2.08.92-3.92 1.43-6.16 1.6v.06c-5.04.7-8.8.05-10.4-1 1.68-1.02 3.12-1.7 4.8-2.4 1.36-.56 2.72-1.2 4.08-1.9z" stroke="#fff" stroke-opacity="0" fill="#fff" fill-opacity="0"/><use xlink:href="#e" transform="matrix(1,0,0,1,1390,289) translate(16.296296296296298 17.77777777777778)"/><use xlink:href="#u" transform="matrix(1,0,0,1,1390,289) translate(-13.209876543209873 44.44444444444444)"/><use xlink:href="#g" transform="matrix(1,0,0,1,1390,289) translate(24.413580246913583 71.11111111111111)"/><use xlink:href="#h" transform="matrix(1,0,0,1,1390,289) translate(70.03086419753086 71.11111111111111)"/><path d="M1030.95 269.1v-1.4c.07-18.67 15.2-33.74 33.8-33.7 17.76.04 32.23 13.66 33.5 31.4l-3.42.2c-.87-16.26-14.34-28.83-30.56-28.65-16.76.2-30.16 13.97-29.96 30.76v1.27z" stroke="#fff" stroke-opacity="0" fill="#d6242d"/><path d="M1032.3 270.14v-2.23c.05-9.08 3.93-16.84 11.1-22.3l.24-.13c5-2.95 9.94-4.28 15.78-4.28 13.54-.18 25.05 8.24 29.04 21.2l-3.26.93c-3.54-11.52-13.8-18.98-25.83-18.78-5.12 0-9.55 1.16-14 3.76-6.34 4.84-9.7 11.62-9.7 19.6v2.15zM1034.54 279.7l-.46-3.4c3.17-.3 5.8-1.18 8.5-2.86 5.67-4.1 17.54-5.55 24-5.12 4.42.67 8.04 1.8 12 3.8 1.78.87 3.36 1.48 5.2 2.02 3.04.1 5.54-.04 8.57-.48h.27c1-.1 1.97-.2 2.96-.27h.93v-6.16h-.32l-3.1.28-2.3.2-.27-3.4 2.3-.2 2.98-.28.8-.1c1.64-.25 3.16.86 3.35 2.47.07.17.07.32.07.5v6.96c0 1.57-1.25 2.84-2.77 2.93h-.26l-1.06.07-2.9.27h-.25c-3.3.48-6.13.63-9.43.47-2.24-.52-4.08-1.18-6.13-2.2-3.63-1.76-6.93-2.78-10.88-3.4-5.8-.44-16.88.87-21.76 4.44-3.16 2-6.26 3.1-10.02 3.47zm62.43-6.53z" stroke="#fff" stroke-opacity="0" fill="#d6242d"/><path d="M1081.03 267.68c-.97-.3-2.05-.7-3.26-1.18-4.34-1.97-8.4-2.84-13.16-2.8-8.26.48-12.3.95-15.33 1.83l-.94-3.28c3.4-.95 7.53-1.47 16.08-1.96 5.3-.08 9.77.85 14.58 3 1.14.47 2.2.84 3 1.08zM1030.04 280c-3.66 0-7.25-.66-9.1-2.52-.74-.7-1.06-1.6-.9-2.6.4-2.17 3.2-3.4 7.05-5.12 1.7-.7 3.27-1.44 4.73-2.24l1.7 3c-1.6.88-3.4 1.7-5 2.38-1.77.7-3.2 1.4-4.82 2.38 1.54 1.1 5.4 1.7 10.46 1l.45 3.43c-1.6.2-2.96.3-4.56.3z" stroke="#fff" stroke-opacity="0" fill="#d6242d"/><path d="M1089.5 270.72h-6.8c-1.6 0-2.9-1.3-2.9-2.92v-3.74c0-1.6 1.3-2.9 2.9-2.9h6.8c1.6 0 2.9 1.3 2.9 2.9v3.74c0 1.6-1.3 2.9-2.9 2.92zm-6.3-3.42h5.8v-2.66h-5.8zM1045.5 275.36c-5.34-.04-9.88-1.7-14-5.12l2.28-2.48c3.52 2.86 7.4 4.22 11.9 4.2z" stroke="#fff" stroke-opacity="0" fill="#d6242d"/><path d="M1065.76 234h-1.04c-18.56-.05-33.68 15.04-33.76 33.67v.32c-1.2.6-2.48 1.2-3.84 1.74-3.92 1.75-6.64 3-7.12 5.15-.08.96.24 1.88.96 2.57 1.84 1.9 5.44 2.53 9.04 2.53 1.68 0 3.04-.1 4.64-.28v-.04c3.68-.37 6.8-1.43 9.92-3.45 4.88-3.54 15.92-4.88 21.76-4.42 3.92.6 7.28 1.62 10.88 3.42 2.08 1 3.92 1.65 6.08 2.2 3.36.14 6.16 0 9.44-.46h.32l2.88-.27 1.04-.1h.24c1.6-.1 2.8-1.38 2.8-2.95v-6.94c0-1.28-.72-2.34-1.92-2.8-1.92-16.8-15.52-29.35-32.32-29.9zm-.72 3c15.36.22 27.92 11.63 29.68 26.95l-1.92.18-2.32.18.32 3.42 2.32-.2 3.04-.3h.32v6.16h-.96c-.88.1-1.92.18-2.88.27h-.32c-2.96.46-5.52.6-8.48.5-1.92-.54-3.52-1.14-5.28-2.02-3.92-1.97-7.6-3.12-12-3.8-5.52-.38-15.2.68-21.36 3.62-4.08-.1-7.6-1.3-10.88-3.77v-.5c-.16-16.75 13.2-30.5 29.92-30.74.32 0 .56 0 .8.05zm-32.48 34.03c2.4 1.8 4.8 2.9 7.68 3.63-2.08.92-3.92 1.43-6.16 1.6v.06c-5.04.7-8.8.05-10.4-1 1.68-1.02 3.12-1.7 4.8-2.4 1.36-.56 2.72-1.2 4.08-1.9z" stroke="#fff" stroke-opacity="0" fill="#fff" fill-opacity="0"/><use xlink:href="#e" transform="matrix(1,0,0,1,990,289) translate(16.296296296296298 17.77777777777778)"/><use xlink:href="#v" transform="matrix(1,0,0,1,990,289) translate(4.1049382716049365 44.44444444444444)"/><use xlink:href="#g" transform="matrix(1,0,0,1,990,289) translate(24.413580246913583 71.11111111111111)"/><use xlink:href="#h" transform="matrix(1,0,0,1,990,289) translate(70.03086419753086 71.11111111111111)"/><path d="M1583.7 257H1515" stroke="#5e5e5e" stroke-width="2" fill="none"/><path d="M1584.7 258h-1.03v-2h1.02z" fill="#5e5e5e"/><path d="M1499.74 257l14.27-4.64v9.28z" stroke="#5e5e5e" stroke-width="2" fill="#5e5e5e"/><path d="M1431.77 257H1311.9" stroke="#5e5e5e" stroke-width="2" fill="none"/><path d="M1433.06 256.27l-.6 1.54-.05.2h-.66v-2h1.4zm1.17 1.73h-1.74l.56-1.73.1-.27h1.78z" fill="#5e5e5e"/><path d="M1296.64 257l14.26-4.64v9.28z" stroke="#5e5e5e" stroke-width="2" fill="#5e5e5e"/><path d="M1219 257h-104" stroke="#5e5e5e" stroke-width="2" fill="none"/><path d="M1220 258h-1.03v-2h1.03z" fill="#5e5e5e"/><path d="M1099.74 257l14.27-4.64v9.28z" stroke="#5e5e5e" stroke-width="2" fill="#5e5e5e"/><path d="M1031.77 257H976c-3.3 0-6 2.7-6 6v94c0 3.3-2.7 6-6 6h-61.5" stroke="#5e5e5e" stroke-width="2" fill="none"/><path d="M1033.06 256.27l-.6 1.54-.05.2h-.66v-2h1.4zm1.17 1.73h-1.74l.56-1.73.1-.27h1.78z" fill="#5e5e5e"/><path d="M887.24 363l14.26-4.64v9.28z" stroke="#5e5e5e" stroke-width="2" fill="#5e5e5e"/><path d="M819 364.1H644.62" stroke="#5e5e5e" stroke-width="2" fill="none"/><path d="M820 365.1h-1.03v-2H820z" fill="#5e5e5e"/><path d="M629.36 364.1l14.26-4.64v9.27z" stroke="#5e5e5e" stroke-width="2" fill="#5e5e5e"/><path d="M417.5 363h129.85" stroke="#5e5e5e" stroke-width="2" fill="none"/><path d="M416.7 363.63l.12.37h-3.3v-2h2.6zm.83.37h-.7l-.12-.37-.5-1.63h1.33z" fill="#5e5e5e"/><path d="M562.6 363l-14.25 4.64v-9.28z" stroke="#5e5e5e" stroke-width="2" fill="#5e5e5e"/><path d="M132.18 395.18H67.82v-64.36h64.36zm-61.02-3.34h57.68v-57.68H71.16z" stroke="#fff" stroke-opacity="0" fill="#d86613"/><path d="M77.02 323h3.33v9.48h-3.33V323zM87.47 323h3.33v9.48h-3.33V323zM97.93 323h3.34v9.48h-3.34V323zM108.4 323h3.33v9.48h-3.33V323zM118.87 323h3.33v9.48h-3.33V323zM77.02 393.52h3.33V403h-3.33v-9.48zM87.47 393.52h3.33V403h-3.33v-9.48zM97.93 393.52h3.34V403h-3.34v-9.48zM108.4 393.52h3.33V403h-3.33v-9.48zM118.87 393.52h3.33V403h-3.33v-9.48zM130.52 340.42H140v3.33h-9.48v-3.33zM130.52 350.87H140v3.33h-9.48v-3.33zM130.52 361.33H140v3.34h-9.48v-3.34zM130.52 371.8H140v3.33h-9.48v-3.33zM130.52 382.25H140v3.33h-9.48v-3.33zM60 340.42h9.48v3.33H60v-3.33zM60 350.87h9.48v3.33H60v-3.33zM60 361.33h9.48v3.34H60v-3.34zM60 371.8h9.48v3.33H60v-3.33zM60 382.25h9.48v3.33H60v-3.33z" stroke="#fff" stroke-opacity="0" fill="#d86613"/><use xlink:href="#w" transform="matrix(1,0,0,1,30,412) translate(16.296296296296298 17.77777777777778)"/><use xlink:href="#x" transform="matrix(1,0,0,1,30,412) translate(40.98765432098766 44.44444444444444)"/><path d="M141 363h193.27" stroke="#5e5e5e" stroke-width="2" fill="none"/><path d="M141.03 364H140v-2h1.03z" fill="#5e5e5e"/><path d="M349.53 363l-14.26 4.64v-9.28z" stroke="#5e5e5e" stroke-width="2" fill="#5e5e5e"/><path d="M1060 500c-22.08 0-40-17.92-40-40s17.92-40 40-40 40 17.92 40 40-17.92 40-40 40zm0-76.56c-20.24 0-36.56 16.32-36.56 36.56 0 20.24 16.32 36.56 36.56 36.56 20.24 0 36.56-16.32 36.56-36.56 0-20.24-16.32-36.56-36.56-36.56z" stroke="#fff" stroke-opacity="0" fill="#693cc5"/><path d="M1077.65 455.22h-3.4v-17.46h-30.1v17.46h-3.4v-19.14c0-.94.77-1.7 1.7-1.7h33.5c.93 0 1.7.76 1.7 1.7zM1075.95 485.63h-33.5c-.93 0-1.7-.77-1.7-1.7v-19.15h3.4v17.46h30.1v-17.46h3.4v19.14c0 .94-.77 1.7-1.7 1.7z" stroke="#fff" stroke-opacity="0" fill="#693cc5"/><path d="M1047.23 442.35h23.94v3.4h-23.94v-3.4zM1047.23 450.3h23.94v3.42h-23.94v-3.4zM1047.23 466.28h23.94v3.4h-23.94v-3.4zM1047.23 474.26h23.94v3.4h-23.94v-3.4zM1029.7 458.3h62.2v3.4h-62.2v-3.4z" stroke="#fff" stroke-opacity="0" fill="#693cc5"/><path d="M1085.14 469.17l-2.4-2.37 6.8-6.8-6.8-6.8 2.4-2.4 8 7.95c.65.66.65 1.75 0 2.4v.03z" stroke="#fff" stroke-opacity="0" fill="#693cc5"/><use xlink:href="#y" transform="matrix(1,0,0,1,990,509) translate(20.740740740740748 17.77777777777778)"/><use xlink:href="#z" transform="matrix(1,0,0,1,990,509) translate(72.53086419753086 17.77777777777778)"/><use xlink:href="#A" transform="matrix(1,0,0,1,990,509) translate(49.660493827160494 44.44444444444444)"/><path d="M1019 460h-43c-3.3 0-6-2.7-6-6v-85c0-3.3-2.7-6-6-6h-61.5" stroke="#5e5e5e" stroke-width="2" fill="none"/><path d="M1020 460l.04 1h-1.07v-2h1.1z" fill="#5e5e5e"/><path d="M887.24 363l14.26-4.64v9.28z" stroke="#5e5e5e" stroke-width="2" fill="#5e5e5e"/><path d="M260 646c0-3.3 2.7-6 6-6h1448c3.3 0 6 2.7 6 6v248c0 3.3-2.7 6-6 6H266c-3.3 0-6-2.7-6-6z" fill="#fff" fill-opacity="0"/><path d="M276.45 640h8.96m5.98 0h8.95m5.98 0h8.96m5.97 0h8.96m5.96 0h8.96m5.97 0h8.95m5.97 0h8.95m5.97 0h8.96m5.97 0h8.96m5.97 0h8.96m5.97 0h8.95m5.98 0h8.95m5.98 0h8.96m5.97 0h8.97m5.97 0h8.96m5.97 0h8.95m5.97 0h8.95m5.97 0h8.96m5.97 0h8.96m5.98 0h8.96m5.97 0h8.96m5.97 0h8.96m5.96 0h8.96m5.97 0h8.95m5.97 0h8.95m5.98 0h8.95m5.97 0h8.96m5.97 0h8.96m5.97 0h8.96m5.96 0h8.95m5.98 0h8.96m5.97 0h8.97m5.97 0h8.96m5.97 0h8.95m5.98 0h8.95m5.97 0h8.96m5.97 0h8.96m5.98 0h8.96m5.97 0h8.96m5.98 0h8.95m5.96 0h8.96m5.97 0h8.95m5.97 0h8.96m5.97 0h8.95m5.97 0h8.96m5.97 0h8.96m5.97 0h8.96m5.96 0H987m6 0h8.94m5.97 0h8.97m5.97 0h8.96m5.97 0h8.96m5.97 0h8.95m5.97 0h8.96m5.97 0h8.96m5.98 0h8.96m5.97 0h8.96m5.98 0h8.95m5.96 0h8.96m5.97 0h8.95m5.97 0h8.96m5.97 0h8.95m5.98 0h8.95m5.97 0h8.96m5.97 0h8.96m5.96 0h8.96m5.97 0h8.94m5.97 0h8.97m5.97 0h8.96m5.97 0h8.96m5.97 0h8.95m5.98 0h8.95m5.97 0h8.96m5.98 0h8.96m5.97 0h8.97m5.97 0h8.95m5.96 0h8.96m5.97 0h8.95m5.97 0h8.96m5.97 0h8.96m5.98 0h8.95m5.97 0h8.96m5.97 0h8.96m5.96 0h8.96m5.97 0h8.94m5.98 0h8.95m5.97 0h8.96m5.97 0h8.96m5.97 0h8.96m5.97 0h8.95m5.97 0h8.96m5.98 0h8.96m5.97 0h8.97m5.97 0h8.95m5.97 0h8.95m5.97 0h8.95m5.97 0h4.48l3.03.82 2.15 2.15.82 3.03v4.38m0 5.83v8.76m0 5.84v8.75m0 5.84v8.74m0 5.84v8.75m0 5.83v8.76m0 5.83v8.76m0 5.84v8.75m0 5.83v8.75m0 5.84v8.75m0 5.84v8.76m0 5.83v8.75m0 5.83v8.76m0 5.83v8.75m0 5.84v8.75m0 5.85v8.75m0 5.84v8.75m0 5.82V894l-.82 3.03-2.15 2.15-3.03.82h-4.48m-5.97 0h-8.96m-5.98 0h-8.95m-5.98 0h-8.96m-5.97 0h-8.96m-5.96 0h-8.96m-5.97 0h-8.95m-5.97 0h-8.95m-5.97 0h-8.96m-5.97 0h-8.96m-5.97 0h-8.96m-5.97 0h-8.95m-5.98 0h-8.95m-5.98 0h-8.96m-5.97 0h-8.97m-5.97 0h-8.96m-5.97 0h-8.95m-5.97 0h-8.95m-5.97 0h-8.96m-5.97 0h-8.96m-5.98 0h-8.96m-5.97 0h-8.96m-5.97 0h-8.96m-5.96 0h-8.96m-5.97 0h-8.95m-5.97 0h-8.95m-5.98 0h-8.95m-5.97 0h-8.96m-5.97 0h-8.96m-5.97 0h-8.96m-5.96 0h-8.95m-5.98 0h-8.96m-5.97 0h-8.97m-5.97 0h-8.96m-5.97 0h-8.95m-5.98 0h-8.95m-5.97 0h-8.96m-5.97 0h-8.96m-5.98 0h-8.96m-5.97 0h-8.96m-5.98 0h-8.95m-5.96 0h-8.96m-5.97 0h-8.95m-5.97 0h-8.96m-5.97 0h-8.95m-5.97 0h-8.96m-5.97 0h-8.96m-5.97 0h-8.96m-5.96 0H993m-6 0h-8.94m-5.97 0h-8.97m-5.97 0h-8.96m-5.97 0h-8.96m-5.97 0h-8.95m-5.97 0h-8.96m-5.97 0h-8.96m-5.98 0h-8.96m-5.97 0h-8.96m-5.98 0h-8.95m-5.96 0h-8.96m-5.97 0h-8.95m-5.97 0h-8.96m-5.97 0H784m-5.98 0h-8.95m-5.97 0h-8.96m-5.97 0h-8.96m-5.96 0h-8.96m-5.97 0h-8.94m-5.97 0h-8.97m-5.97 0h-8.96m-5.97 0h-8.96m-5.97 0h-8.95m-5.98 0h-8.95m-5.97 0h-8.96m-5.98 0h-8.96m-5.97 0h-8.97m-5.97 0H575m-5.96 0h-8.96m-5.97 0h-8.95m-5.97 0h-8.96m-5.97 0h-8.96m-5.98 0h-8.95m-5.97 0h-8.96m-5.97 0h-8.96m-5.96 0h-8.96m-5.97 0h-8.94m-5.98 0h-8.95m-5.97 0h-8.96m-5.97 0h-8.96m-5.97 0h-8.96m-5.97 0h-8.95m-5.97 0h-8.96m-5.98 0h-8.96m-5.97 0h-8.97m-5.97 0h-8.95m-5.97 0h-8.95m-5.97 0h-8.95m-5.97 0H266l-3.03-.82-2.15-2.15L260 894v-4.38m0-5.83v-8.76m0-5.84v-8.75m0-5.84v-8.74m0-5.84v-8.75m0-5.83v-8.76m0-5.83v-8.76m0-5.84v-8.75m0-5.83v-8.75m0-5.84v-8.75m0-5.84v-8.76m0-5.83v-8.75m0-5.83v-8.76m0-5.83v-8.75m0-5.84v-8.75m0-5.85v-8.75m0-5.84v-8.75m0-5.82V646l.82-3.03 2.15-2.15L266 640h4.48" stroke="#147eba" stroke-width="3" fill="none"/><path d="M260 640h56v56h-56v-56z" stroke="#fff" stroke-opacity="0" fill="#147eba"/><path d="M303.84 669.36l-5.96-7.36 5.96-7.4h-26.17v-2.08c.98-.32 1.62-1.16 1.62-2.2-.1-1.15-1.03-2.02-2.17-2.14-1.3-.08-2.44.87-2.53 2.15 0 1.03.63 1.87 1.58 2.2v33.88h-4.02v1.6h9.44v-1.6h-3.93v-17.04zm-26.96-19.75c.4-.03.76.33.76.73 0 .44-.32.75-.73.75-.4.04-.75-.3-.75-.7v-.05c0-.4.32-.72.73-.72zm23.6 6.62l-4.66 5.78 4.66 5.73h-22.8v-11.5z" stroke="#fff" stroke-opacity="0" fill="#fff"/><use xlink:href="#B" transform="matrix(1,0,0,1,331,660) translate(0 14.4)"/><use xlink:href="#b" transform="matrix(1,0,0,1,331,660) translate(90.95 14.4)"/><path d="M1602.4 753.62h-16c-.95 0-1.7-.77-1.7-1.7v-35.1c0-.94.75-1.7 1.7-1.7h16c.96 0 1.7.76 1.7 1.7v35.1c0 .93-.74 1.7-1.7 1.7zm-14.3-3.4h12.6V718.5h-12.6zM1628 753.62h-16c-.95 0-1.7-.77-1.7-1.7v-27.13c0-.96.75-1.72 1.7-1.72h16c.95 0 1.7.76 1.7 1.7v27.13c0 .95-.75 1.72-1.7 1.72zm-14.3-3.4h12.6v-23.75h-12.6zM1580 756.6h80v3.4h-80v-3.4zM1654.4 705.75h-17.6c-2.27 0-4.1-1.85-4.1-4.12v-17.5c0-2.28 1.83-4.13 4.1-4.13h17.6c2.27 0 4.1 1.83 4.1 4.1v17.52c0 2.28-1.83 4.13-4.1 4.13zm-17.6-22.35c-.4.03-.7.33-.7.72v17.54c0 .38.3.7.7.7h17.6c.38-.03.7-.34.7-.73v-17.5c0-.4-.32-.7-.7-.73zM1653.6 753.62h-16c-.96 0-1.7-.77-1.7-1.7v-41.48c0-.95.74-1.7 1.7-1.7h16c.95 0 1.7.75 1.7 1.7v41.47c0 .95-.75 1.72-1.7 1.72zm-14.3-3.4h12.6v-38.08h-12.6z" stroke="#fff" stroke-opacity="0" fill="#cd2264"/><path d="M1586.53 725.33h50.4v32.9h-50.4v-32.9z" stroke="#fff" stroke-opacity="0" stroke-width=".21" fill="#fff" fill-opacity="0"/><path d="M1637.68 702.12h15.87v55.84h-15.87v-55.84z" stroke="#fff" stroke-opacity="0" stroke-width=".16" fill="#fff" fill-opacity="0"/><use xlink:href="#o" transform="matrix(1,0,0,1,1550,769) translate(9.567901234567891 17.77777777777778)"/><use xlink:href="#p" transform="matrix(1,0,0,1,1550,769) translate(41.66666666666667 44.44444444444444)"/><path d="M1291.82 760h-57.48c-.85 0-1.57-.72-1.57-1.6v-76.8c0-.88.72-1.6 1.57-1.6h57.48c.85 0 1.58.72 1.58 1.6v76.8c0 .88-.73 1.6-1.58 1.6zm-55.84-3.2h54.2v-73.6H1236zM1229.57 760h-4.6c-2.74 0-4.97-2.24-4.97-4.96v-70c0-2.8 2.25-5.04 5-5.04h4.57v3.2H1225c-1 0-1.8.8-1.8 1.84v69.92c0 1.04.8 1.84 1.8 1.84h4.57z" stroke="#fff" stroke-opacity="0" fill="#693cc5"/><path d="M1242.34 688h43.08v3.2h-43.08V688zM1242.34 694.4h43.08v3.2h-43.08v-3.2zM1242.34 744h43.08v3.2h-43.08V744zM1242.34 750.4h43.08v3.2h-43.08v-3.2zM1263.08 740c-1.53-.03-2.8-.45-4.1-1.3-.48-.33-.76-.8-.76-1.36v-5.5l-12.5-24.9 2.84-1.46 12.75 25.25c.1.2.18.45.18.73v4.9c1.05.6 2.16.6 3.2 0v-4.97c0-.3.07-.5.18-.74l12.75-25.25 2.86 1.46-12.58 24.9v5.58c0 .55-.28 1-.7 1.3-1.28.9-2.57 1.33-4.1 1.36z" stroke="#fff" stroke-opacity="0" fill="#693cc5"/><path d="M1263.16 711.65c-2.9 0-17.55-.26-17.55-5.32 0-5.05 14.58-5.3 17.56-5.3 3 0 17.55.26 17.55 5.3s-14.62 5.32-17.54 5.32zm-14-5.32c1.47.87 6.28 2.1 14 2.1 7.73 0 12.57-1.23 14-2.1-1.43-.85-6.24-2.1-14-2.1s-12.53 1.25-14 2.1z" stroke="#fff" stroke-opacity="0" fill="#693cc5"/><path d="M1224.5 681.7h64.56c1.9 0 2.8.9 2.8 2.76v71.4c0 1.84-.9 2.76-2.8 2.76h-64.55c-1.88 0-2.8-.92-2.8-2.77v-71.4c0-1.84.92-2.76 2.8-2.76z" stroke="#fff" stroke-opacity="0" stroke-width=".45" fill="#fff" fill-opacity="0"/><use xlink:href="#q" transform="matrix(1,0,0,1,1190,769) translate(13.327160493827158 17.77777777777778)"/><use xlink:href="#r" transform="matrix(1,0,0,1,1190,769) translate(-28.524691358024683 44.44444444444444)"/><use xlink:href="#s" transform="matrix(1,0,0,1,1190,769) translate(31.25925925925926 71.11111111111111)"/><use xlink:href="#t" transform="matrix(1,0,0,1,1190,769) translate(23.882716049382715 97.77777777777777)"/><path d="M1430.95 749.1v-1.4c.07-18.67 15.2-33.74 33.8-33.7 17.76.04 32.23 13.66 33.5 31.4l-3.42.2c-.87-16.26-14.34-28.83-30.56-28.65-16.76.2-30.16 13.97-29.96 30.76v1.27z" stroke="#fff" stroke-opacity="0" fill="#d6242d"/><path d="M1432.3 750.14v-2.23c.05-9.08 3.93-16.84 11.1-22.3l.24-.13c5-2.95 9.94-4.28 15.78-4.28 13.54-.18 25.05 8.24 29.04 21.2l-3.26.93c-3.54-11.52-13.8-18.98-25.83-18.78-5.12 0-9.55 1.16-14 3.76-6.34 4.84-9.7 11.62-9.7 19.6v2.15zM1434.54 759.7l-.46-3.4c3.17-.3 5.8-1.18 8.5-2.86 5.67-4.1 17.54-5.55 24-5.12 4.42.67 8.04 1.8 12 3.8 1.78.87 3.36 1.48 5.2 2.02 3.04.1 5.54-.04 8.57-.48h.27c1-.1 1.97-.2 2.96-.27h.93v-6.16h-.32l-3.1.28-2.3.2-.27-3.4 2.3-.2 2.98-.28.8-.1c1.64-.25 3.16.86 3.35 2.47.07.17.07.32.07.5v6.96c0 1.57-1.25 2.84-2.77 2.93h-.26l-1.06.07-2.9.27h-.25c-3.3.48-6.13.63-9.43.47-2.24-.52-4.08-1.18-6.13-2.2-3.63-1.76-6.93-2.78-10.88-3.4-5.8-.44-16.88.87-21.76 4.44-3.16 2-6.26 3.1-10.02 3.47zm62.43-6.53z" stroke="#fff" stroke-opacity="0" fill="#d6242d"/><path d="M1481.03 747.68c-.97-.3-2.05-.7-3.26-1.18-4.34-1.97-8.4-2.84-13.16-2.8-8.26.48-12.3.95-15.33 1.83l-.94-3.28c3.4-.95 7.53-1.47 16.08-1.96 5.3-.08 9.77.85 14.58 3 1.14.47 2.2.84 3 1.08zM1430.04 760c-3.66 0-7.25-.66-9.1-2.52-.74-.7-1.06-1.6-.9-2.6.4-2.17 3.2-3.4 7.05-5.12 1.7-.7 3.27-1.44 4.73-2.24l1.7 3c-1.6.88-3.4 1.7-5 2.38-1.77.7-3.2 1.4-4.82 2.38 1.54 1.1 5.4 1.7 10.46 1l.45 3.43c-1.6.2-2.96.3-4.56.3z" stroke="#fff" stroke-opacity="0" fill="#d6242d"/><path d="M1489.5 750.72h-6.8c-1.6 0-2.9-1.3-2.9-2.92v-3.74c0-1.6 1.3-2.9 2.9-2.9h6.8c1.6 0 2.9 1.3 2.9 2.9v3.74c0 1.6-1.3 2.9-2.9 2.92zm-6.3-3.42h5.8v-2.66h-5.8zM1445.5 755.36c-5.34-.04-9.88-1.7-14-5.12l2.28-2.48c3.52 2.86 7.4 4.22 11.9 4.2z" stroke="#fff" stroke-opacity="0" fill="#d6242d"/><path d="M1465.76 714h-1.04c-18.56-.05-33.68 15.04-33.76 33.67v.32c-1.2.6-2.48 1.2-3.84 1.74-3.92 1.75-6.64 3-7.12 5.15-.08.96.24 1.88.96 2.57 1.84 1.9 5.44 2.53 9.04 2.53 1.68 0 3.04-.1 4.64-.28v-.04c3.68-.37 6.8-1.43 9.92-3.45 4.88-3.54 15.92-4.88 21.76-4.42 3.92.6 7.28 1.62 10.88 3.42 2.08 1 3.92 1.65 6.08 2.2 3.36.14 6.16 0 9.44-.46h.32l2.88-.27 1.04-.1h.24c1.6-.1 2.8-1.38 2.8-2.95v-6.94c0-1.28-.72-2.34-1.92-2.8-1.92-16.8-15.52-29.35-32.32-29.9zm-.72 3c15.36.22 27.92 11.63 29.68 26.95l-1.92.18-2.32.18.32 3.42 2.32-.2 3.04-.3h.32v6.16h-.96c-.88.1-1.92.18-2.88.27h-.32c-2.96.46-5.52.6-8.48.5-1.92-.54-3.52-1.14-5.28-2.02-3.92-1.97-7.6-3.12-12-3.8-5.52-.38-15.2.68-21.36 3.62-4.08-.1-7.6-1.3-10.88-3.77v-.5c-.16-16.75 13.2-30.5 29.92-30.74.32 0 .56 0 .8.05zm-32.48 34.03c2.4 1.8 4.8 2.9 7.68 3.63-2.08.92-3.92 1.43-6.16 1.6v.06c-5.04.7-8.8.05-10.4-1 1.68-1.02 3.12-1.7 4.8-2.4 1.36-.56 2.72-1.2 4.08-1.9z" stroke="#fff" stroke-opacity="0" fill="#fff" fill-opacity="0"/><use xlink:href="#e" transform="matrix(1,0,0,1,1390,769) translate(16.296296296296298 17.77777777777778)"/><use xlink:href="#u" transform="matrix(1,0,0,1,1390,769) translate(-13.209876543209873 44.44444444444444)"/><use xlink:href="#g" transform="matrix(1,0,0,1,1390,769) translate(24.413580246913583 71.11111111111111)"/><use xlink:href="#h" transform="matrix(1,0,0,1,1390,769) translate(70.03086419753086 71.11111111111111)"/><path d="M1030.95 749.1v-1.4c.07-18.67 15.2-33.74 33.8-33.7 17.76.04 32.23 13.66 33.5 31.4l-3.42.2c-.87-16.26-14.34-28.83-30.56-28.65-16.76.2-30.16 13.97-29.96 30.76v1.27z" stroke="#fff" stroke-opacity="0" fill="#d6242d"/><path d="M1032.3 750.14v-2.23c.05-9.08 3.93-16.84 11.1-22.3l.24-.13c5-2.95 9.94-4.28 15.78-4.28 13.54-.18 25.05 8.24 29.04 21.2l-3.26.93c-3.54-11.52-13.8-18.98-25.83-18.78-5.12 0-9.55 1.16-14 3.76-6.34 4.84-9.7 11.62-9.7 19.6v2.15zM1034.54 759.7l-.46-3.4c3.17-.3 5.8-1.18 8.5-2.86 5.67-4.1 17.54-5.55 24-5.12 4.42.67 8.04 1.8 12 3.8 1.78.87 3.36 1.48 5.2 2.02 3.04.1 5.54-.04 8.57-.48h.27c1-.1 1.97-.2 2.96-.27h.93v-6.16h-.32l-3.1.28-2.3.2-.27-3.4 2.3-.2 2.98-.28.8-.1c1.64-.25 3.16.86 3.35 2.47.07.17.07.32.07.5v6.96c0 1.57-1.25 2.84-2.77 2.93h-.26l-1.06.07-2.9.27h-.25c-3.3.48-6.13.63-9.43.47-2.24-.52-4.08-1.18-6.13-2.2-3.63-1.76-6.93-2.78-10.88-3.4-5.8-.44-16.88.87-21.76 4.44-3.16 2-6.26 3.1-10.02 3.47zm62.43-6.53z" stroke="#fff" stroke-opacity="0" fill="#d6242d"/><path d="M1081.03 747.68c-.97-.3-2.05-.7-3.26-1.18-4.34-1.97-8.4-2.84-13.16-2.8-8.26.48-12.3.95-15.33 1.83l-.94-3.28c3.4-.95 7.53-1.47 16.08-1.96 5.3-.08 9.77.85 14.58 3 1.14.47 2.2.84 3 1.08zM1030.04 760c-3.66 0-7.25-.66-9.1-2.52-.74-.7-1.06-1.6-.9-2.6.4-2.17 3.2-3.4 7.05-5.12 1.7-.7 3.27-1.44 4.73-2.24l1.7 3c-1.6.88-3.4 1.7-5 2.38-1.77.7-3.2 1.4-4.82 2.38 1.54 1.1 5.4 1.7 10.46 1l.45 3.43c-1.6.2-2.96.3-4.56.3z" stroke="#fff" stroke-opacity="0" fill="#d6242d"/><path d="M1089.5 750.72h-6.8c-1.6 0-2.9-1.3-2.9-2.92v-3.74c0-1.6 1.3-2.9 2.9-2.9h6.8c1.6 0 2.9 1.3 2.9 2.9v3.74c0 1.6-1.3 2.9-2.9 2.92zm-6.3-3.42h5.8v-2.66h-5.8zM1045.5 755.36c-5.34-.04-9.88-1.7-14-5.12l2.28-2.48c3.52 2.86 7.4 4.22 11.9 4.2z" stroke="#fff" stroke-opacity="0" fill="#d6242d"/><path d="M1065.76 714h-1.04c-18.56-.05-33.68 15.04-33.76 33.67v.32c-1.2.6-2.48 1.2-3.84 1.74-3.92 1.75-6.64 3-7.12 5.15-.08.96.24 1.88.96 2.57 1.84 1.9 5.44 2.53 9.04 2.53 1.68 0 3.04-.1 4.64-.28v-.04c3.68-.37 6.8-1.43 9.92-3.45 4.88-3.54 15.92-4.88 21.76-4.42 3.92.6 7.28 1.62 10.88 3.42 2.08 1 3.92 1.65 6.08 2.2 3.36.14 6.16 0 9.44-.46h.32l2.88-.27 1.04-.1h.24c1.6-.1 2.8-1.38 2.8-2.95v-6.94c0-1.28-.72-2.34-1.92-2.8-1.92-16.8-15.52-29.35-32.32-29.9zm-.72 3c15.36.22 27.92 11.63 29.68 26.95l-1.92.18-2.32.18.32 3.42 2.32-.2 3.04-.3h.32v6.16h-.96c-.88.1-1.92.18-2.88.27h-.32c-2.96.46-5.52.6-8.48.5-1.92-.54-3.52-1.14-5.28-2.02-3.92-1.97-7.6-3.12-12-3.8-5.52-.38-15.2.68-21.36 3.62-4.08-.1-7.6-1.3-10.88-3.77v-.5c-.16-16.75 13.2-30.5 29.92-30.74.32 0 .56 0 .8.05zm-32.48 34.03c2.4 1.8 4.8 2.9 7.68 3.63-2.08.92-3.92 1.43-6.16 1.6v.06c-5.04.7-8.8.05-10.4-1 1.68-1.02 3.12-1.7 4.8-2.4 1.36-.56 2.72-1.2 4.08-1.9z" stroke="#fff" stroke-opacity="0" fill="#fff" fill-opacity="0"/><g><use xlink:href="#e" transform="matrix(1,0,0,1,990,769) translate(16.296296296296298 17.77777777777778)"/><use xlink:href="#v" transform="matrix(1,0,0,1,990,769) translate(4.1049382716049365 44.44444444444444)"/><use xlink:href="#g" transform="matrix(1,0,0,1,990,769) translate(24.413580246913583 71.11111111111111)"/><use xlink:href="#h" transform="matrix(1,0,0,1,990,769) translate(70.03086419753086 71.11111111111111)"/></g><path d="M1583.7 737H1515" stroke="#5e5e5e" stroke-width="2" fill="none"/><path d="M1584.7 738h-1.03v-2h1.02z" fill="#5e5e5e"/><path d="M1499.74 737l14.27-4.64v9.28z" stroke="#5e5e5e" stroke-width="2" fill="#5e5e5e"/><path d="M1431.77 737H1311.9" stroke="#5e5e5e" stroke-width="2" fill="none"/><path d="M1433.06 736.27l-.6 1.54-.05.2h-.66v-2h1.4zm1.17 1.73h-1.74l.56-1.73.1-.27h1.78z" fill="#5e5e5e"/><path d="M1296.64 737l14.26-4.64v9.28z" stroke="#5e5e5e" stroke-width="2" fill="#5e5e5e"/><path d="M1219 737h-104" stroke="#5e5e5e" stroke-width="2" fill="none"/><path d="M1220 738h-1.03v-2h1.03z" fill="#5e5e5e"/><path d="M1099.74 737l14.27-4.64v9.28z" stroke="#5e5e5e" stroke-width="2" fill="#5e5e5e"/><path d="M860 760c-22.08 0-40-17.92-40-40s17.92-40 40-40 40 17.92 40 40-17.92 40-40 40zm0-76.56c-20.24 0-36.56 16.32-36.56 36.56 0 20.24 16.32 36.56 36.56 36.56 20.24 0 36.56-16.32 36.56-36.56 0-20.24-16.32-36.56-36.56-36.56z" stroke="#fff" stroke-opacity="0" fill="#693cc5"/><path d="M877.65 715.22h-3.4v-17.46h-30.1v17.46h-3.4v-19.14c0-.94.77-1.7 1.7-1.7h33.5c.93 0 1.7.76 1.7 1.7zM875.95 745.63h-33.5c-.93 0-1.7-.77-1.7-1.7v-19.15h3.4v17.46h30.1v-17.46h3.4v19.14c0 .94-.77 1.7-1.7 1.7z" stroke="#fff" stroke-opacity="0" fill="#693cc5"/><path d="M847.23 702.35h23.94v3.4h-23.94v-3.4zM847.23 710.3h23.94v3.42h-23.94v-3.4zM847.23 726.28h23.94v3.4h-23.94v-3.4zM847.23 734.26h23.94v3.4h-23.94v-3.4zM829.7 718.3h62.2v3.4h-62.2v-3.4z" stroke="#fff" stroke-opacity="0" fill="#693cc5"/><path d="M885.14 729.17l-2.4-2.37 6.8-6.8-6.8-6.8 2.4-2.4 8 7.95c.65.66.65 1.75 0 2.4v.03z" stroke="#fff" stroke-opacity="0" fill="#693cc5"/><g><use xlink:href="#y" transform="matrix(1,0,0,1,790,769) translate(20.740740740740748 17.77777777777778)"/><use xlink:href="#z" transform="matrix(1,0,0,1,790,769) translate(72.53086419753086 17.77777777777778)"/><use xlink:href="#A" transform="matrix(1,0,0,1,790,769) translate(49.660493827160494 44.44444444444444)"/></g><path d="M1031.77 737H976c-3.3 0-6-2.7-6-6V369c0-3.3-2.7-6-6-6h-61.5" stroke="#5e5e5e" stroke-width="2" fill="none"/><path d="M1033.06 736.27l-.6 1.54-.05.2h-.66v-2h1.4zm1.17 1.73h-1.74l.56-1.73.1-.27h1.78z" fill="#5e5e5e"/><path d="M887.24 363l14.26-4.64v9.28z" stroke="#5e5e5e" stroke-width="2" fill="#5e5e5e"/><path d="M896.5 738.37H964c3.3 0 6-2.7 6-6V369c0-3.3-2.7-6-6-6h-61.5" stroke="#5e5e5e" stroke-width="2" fill="none"/><path d="M896.5 739.37H895l.15-.23.83-1.77h.55z" fill="#5e5e5e"/><path d="M887.24 363l14.26-4.64v9.28z" stroke="#5e5e5e" stroke-width="2" fill="#5e5e5e"/><defs><path fill="#147eba" d="M240 0l2-218c-23 76-54 145-80 218h-23L58-218 59 0H30v-248h44l77 211c21-75 51-140 76-211h43V0h-30" id="C"/><path fill="#147eba" d="M141-36C126-15 110 5 73 4 37 3 15-17 15-53c-1-64 63-63 125-63 3-35-9-54-41-54-24 1-41 7-42 31l-33-3c5-37 33-52 76-52 45 0 72 20 72 64v82c-1 20 7 32 28 27v20c-31 9-61-2-59-35zM48-53c0 20 12 33 32 33 41-3 63-29 60-74-43 2-92-5-92 41" id="D"/><path fill="#147eba" d="M24-231v-30h32v30H24zM24 0v-190h32V0H24" id="E"/><path fill="#147eba" d="M117-194c89-4 53 116 60 194h-32v-121c0-31-8-49-39-48C34-167 62-67 57 0H25l-1-190h30c1 10-1 24 2 32 11-22 29-35 61-36" id="F"/><g id="a"><use transform="matrix(0.05,0,0,0.05,0,0)" xlink:href="#C"/><use transform="matrix(0.05,0,0,0.05,14.950000000000001,0)" xlink:href="#D"/><use transform="matrix(0.05,0,0,0.05,24.950000000000003,0)" xlink:href="#E"/><use transform="matrix(0.05,0,0,0.05,28.900000000000002,0)" xlink:href="#F"/></g><path fill="#147eba" d="M233-177c-1 41-23 64-60 70L243 0h-38l-65-103H63V0H30v-248c88 3 205-21 203 71zM63-129c60-2 137 13 137-47 0-61-80-42-137-45v92" id="G"/><path fill="#147eba" d="M100-194c63 0 86 42 84 106H49c0 40 14 67 53 68 26 1 43-12 49-29l28 8c-11 28-37 45-77 45C44 4 14-33 15-96c1-61 26-98 85-98zm52 81c6-60-76-77-97-28-3 7-6 17-6 28h103" id="H"/><path fill="#147eba" d="M177-190C167-65 218 103 67 71c-23-6-38-20-44-43l32-5c15 47 100 32 89-28v-30C133-14 115 1 83 1 29 1 15-40 15-95c0-56 16-97 71-98 29-1 48 16 59 35 1-10 0-23 2-32h30zM94-22c36 0 50-32 50-73 0-42-14-75-50-75-39 0-46 34-46 75s6 73 46 73" id="I"/><path fill="#147eba" d="M100-194c62-1 85 37 85 99 1 63-27 99-86 99S16-35 15-95c0-66 28-99 85-99zM99-20c44 1 53-31 53-75 0-43-8-75-51-75s-53 32-53 75 10 74 51 75" id="J"/><g id="b"><use transform="matrix(0.05,0,0,0.05,0,0)" xlink:href="#G"/><use transform="matrix(0.05,0,0,0.05,12.950000000000001,0)" xlink:href="#H"/><use transform="matrix(0.05,0,0,0.05,22.950000000000003,0)" xlink:href="#I"/><use transform="matrix(0.05,0,0,0.05,32.95,0)" xlink:href="#E"/><use transform="matrix(0.05,0,0,0.05,36.900000000000006,0)" xlink:href="#J"/><use transform="matrix(0.05,0,0,0.05,46.900000000000006,0)" xlink:href="#F"/></g><path fill="#232f3e" d="M205 0l-28-72H64L36 0H1l101-248h38L239 0h-34zm-38-99l-47-123c-12 45-31 82-46 123h93" id="K"/><path fill="#232f3e" d="M266 0h-40l-56-210L115 0H75L2-248h35L96-30l15-64 43-154h32l59 218 59-218h35" id="L"/><path fill="#232f3e" d="M185-189c-5-48-123-54-124 2 14 75 158 14 163 119 3 78-121 87-175 55-17-10-28-26-33-46l33-7c5 56 141 63 141-1 0-78-155-14-162-118-5-82 145-84 179-34 5 7 8 16 11 25" id="M"/><g id="c"><use transform="matrix(0.05,0,0,0.05,0,0)" xlink:href="#K"/><use transform="matrix(0.05,0,0,0.05,11.35,0)" xlink:href="#L"/><use transform="matrix(0.05,0,0,0.05,28.299999999999997,0)" xlink:href="#M"/></g><path fill="#232f3e" d="M96-169c-40 0-48 33-48 73s9 75 48 75c24 0 41-14 43-38l32 2c-6 37-31 61-74 61-59 0-76-41-82-99-10-93 101-131 147-64 4 7 5 14 7 22l-32 3c-4-21-16-35-41-35" id="N"/><path fill="#232f3e" d="M100-194c62-1 85 37 85 99 1 63-27 99-86 99S16-35 15-95c0-66 28-99 85-99zM99-20c44 1 53-31 53-75 0-43-8-75-51-75s-53 32-53 75 10 74 51 75" id="O"/><path fill="#232f3e" d="M84 4C-5 8 30-112 23-190h32v120c0 31 7 50 39 49 72-2 45-101 50-169h31l1 190h-30c-1-10 1-25-2-33-11 22-28 36-60 37" id="P"/><path fill="#232f3e" d="M117-194c89-4 53 116 60 194h-32v-121c0-31-8-49-39-48C34-167 62-67 57 0H25l-1-190h30c1 10-1 24 2 32 11-22 29-35 61-36" id="Q"/><path fill="#232f3e" d="M59-47c-2 24 18 29 38 22v24C64 9 27 4 27-40v-127H5v-23h24l9-43h21v43h35v23H59v120" id="R"/><g id="d"><use transform="matrix(0.05,0,0,0.05,0,0)" xlink:href="#K"/><use transform="matrix(0.05,0,0,0.05,12,0)" xlink:href="#N"/><use transform="matrix(0.05,0,0,0.05,21,0)" xlink:href="#N"/><use transform="matrix(0.05,0,0,0.05,30,0)" xlink:href="#O"/><use transform="matrix(0.05,0,0,0.05,40,0)" xlink:href="#P"/><use transform="matrix(0.05,0,0,0.05,50,0)" xlink:href="#Q"/><use transform="matrix(0.05,0,0,0.05,60,0)" xlink:href="#R"/></g><path fill="#333" d="M185-189c-5-48-123-54-124 2 14 75 158 14 163 119 3 78-121 87-175 55-17-10-28-26-33-46l33-7c5 56 141 63 141-1 0-78-155-14-162-118-5-82 145-84 179-34 5 7 8 16 11 25" id="S"/><path fill="#333" d="M59-47c-2 24 18 29 38 22v24C64 9 27 4 27-40v-127H5v-23h24l9-43h21v43h35v23H59v120" id="T"/><path fill="#333" d="M141-36C126-15 110 5 73 4 37 3 15-17 15-53c-1-64 63-63 125-63 3-35-9-54-41-54-24 1-41 7-42 31l-33-3c5-37 33-52 76-52 45 0 72 20 72 64v82c-1 20 7 32 28 27v20c-31 9-61-2-59-35zM48-53c0 20 12 33 32 33 41-3 63-29 60-74-43 2-92-5-92 41" id="U"/><path fill="#333" d="M96-169c-40 0-48 33-48 73s9 75 48 75c24 0 41-14 43-38l32 2c-6 37-31 61-74 61-59 0-76-41-82-99-10-93 101-131 147-64 4 7 5 14 7 22l-32 3c-4-21-16-35-41-35" id="V"/><path fill="#333" d="M143 0L79-87 56-68V0H24v-261h32v163l83-92h37l-77 82L181 0h-38" id="W"/><path fill="#333" d="M100-194c63 0 86 42 84 106H49c0 40 14 67 53 68 26 1 43-12 49-29l28 8c-11 28-37 45-77 45C44 4 14-33 15-96c1-61 26-98 85-98zm52 81c6-60-76-77-97-28-3 7-6 17-6 28h103" id="X"/><g id="e"><use transform="matrix(0.06172839506172839,0,0,0.06172839506172839,0,0)" xlink:href="#S"/><use transform="matrix(0.06172839506172839,0,0,0.06172839506172839,14.814814814814813,0)" xlink:href="#T"/><use transform="matrix(0.06172839506172839,0,0,0.06172839506172839,20.98765432098765,0)" xlink:href="#U"/><use transform="matrix(0.06172839506172839,0,0,0.06172839506172839,33.33333333333333,0)" xlink:href="#V"/><use transform="matrix(0.06172839506172839,0,0,0.06172839506172839,44.44444444444444,0)" xlink:href="#W"/><use transform="matrix(0.06172839506172839,0,0,0.06172839506172839,55.55555555555556,0)" xlink:href="#S"/><use transform="matrix(0.06172839506172839,0,0,0.06172839506172839,70.37037037037037,0)" xlink:href="#T"/><use transform="matrix(0.06172839506172839,0,0,0.06172839506172839,76.5432098765432,0)" xlink:href="#U"/><use transform="matrix(0.06172839506172839,0,0,0.06172839506172839,88.88888888888889,0)" xlink:href="#T"/><use transform="matrix(0.06172839506172839,0,0,0.06172839506172839,95.06172839506172,0)" xlink:href="#X"/></g><path fill="#333" d="M205 0l-28-72H64L36 0H1l101-248h38L239 0h-34zm-38-99l-47-123c-12 45-31 82-46 123h93" id="Y"/><path fill="#333" d="M206 0h-36l-40-164L89 0H53L-1-190h32L70-26l43-164h34l41 164 42-164h31" id="Z"/><path fill="#333" d="M135-143c-3-34-86-38-87 0 15 53 115 12 119 90S17 21 10-45l28-5c4 36 97 45 98 0-10-56-113-15-118-90-4-57 82-63 122-42 12 7 21 19 24 35" id="aa"/><path fill="#333" d="M33 0v-248h34V0H33" id="ab"/><path fill="#333" d="M117-194c89-4 53 116 60 194h-32v-121c0-31-8-49-39-48C34-167 62-67 57 0H25l-1-190h30c1 10-1 24 2 32 11-22 29-35 61-36" id="ac"/><path fill="#333" d="M177-190C167-65 218 103 67 71c-23-6-38-20-44-43l32-5c15 47 100 32 89-28v-30C133-14 115 1 83 1 29 1 15-40 15-95c0-56 16-97 71-98 29-1 48 16 59 35 1-10 0-23 2-32h30zM94-22c36 0 50-32 50-73 0-42-14-75-50-75-39 0-46 34-46 75s6 73 46 73" id="ad"/><path fill="#333" d="M114-163C36-179 61-72 57 0H25l-1-190h30c1 12-1 29 2 39 6-27 23-49 58-41v29" id="ae"/><path fill="#333" d="M24-231v-30h32v30H24zM24 0v-190h32V0H24" id="af"/><path fill="#333" d="M100-194c62-1 85 37 85 99 1 63-27 99-86 99S16-35 15-95c0-66 28-99 85-99zM99-20c44 1 53-31 53-75 0-43-8-75-51-75s-53 32-53 75 10 74 51 75" id="ag"/><path fill="#333" d="M233-177c-1 41-23 64-60 70L243 0h-38l-65-103H63V0H30v-248c88 3 205-21 203 71zM63-129c60-2 137 13 137-47 0-61-80-42-137-45v92" id="ah"/><path fill="#333" d="M24 0v-261h32V0H24" id="ai"/><g id="f"><use transform="matrix(0.06172839506172839,0,0,0.06172839506172839,0,0)" xlink:href="#Y"/><use transform="matrix(0.06172839506172839,0,0,0.06172839506172839,14.382716049382715,0)" xlink:href="#Z"/><use transform="matrix(0.06172839506172839,0,0,0.06172839506172839,30.370370370370367,0)" xlink:href="#aa"/><use transform="matrix(0.06172839506172839,0,0,0.06172839506172839,41.48148148148148,0)" xlink:href="#ab"/><use transform="matrix(0.06172839506172839,0,0,0.06172839506172839,47.65432098765432,0)" xlink:href="#ac"/><use transform="matrix(0.06172839506172839,0,0,0.06172839506172839,60,0)" xlink:href="#T"/><use transform="matrix(0.06172839506172839,0,0,0.06172839506172839,66.17283950617283,0)" xlink:href="#X"/><use transform="matrix(0.06172839506172839,0,0,0.06172839506172839,78.51851851851852,0)" xlink:href="#ad"/><use transform="matrix(0.06172839506172839,0,0,0.06172839506172839,90.8641975308642,0)" xlink:href="#ae"/><use transform="matrix(0.06172839506172839,0,0,0.06172839506172839,98.20987654320989,0)" xlink:href="#U"/><use transform="matrix(0.06172839506172839,0,0,0.06172839506172839,110.55555555555557,0)" xlink:href="#T"/><use transform="matrix(0.06172839506172839,0,0,0.06172839506172839,116.7283950617284,0)" xlink:href="#af"/><use transform="matrix(0.06172839506172839,0,0,0.06172839506172839,121.60493827160495,0)" xlink:href="#ag"/><use transform="matrix(0.06172839506172839,0,0,0.06172839506172839,133.95061728395063,0)" xlink:href="#ac"/><use transform="matrix(0.06172839506172839,0,0,0.06172839506172839,146.2962962962963,0)" xlink:href="#ah"/><use transform="matrix(0.06172839506172839,0,0,0.06172839506172839,162.28395061728395,0)" xlink:href="#ag"/><use transform="matrix(0.06172839506172839,0,0,0.06172839506172839,174.62962962962962,0)" xlink:href="#ai"/><use transform="matrix(0.06172839506172839,0,0,0.06172839506172839,179.50617283950615,0)" xlink:href="#X"/></g><path fill="#333" d="M14 0l48-248h34L48 0H14" id="aj"/><path fill="#333" d="M187 0l-14-72H61L19 0h-37l149-248h38L221 0h-34zm-19-99l-22-123L76-99h92" id="ak"/><path fill="#333" d="M222 0l43-216c-8 16-17 34-26 49L143 0h-22L81-216 41 0H11l48-248h42l38 208 116-208h45L252 0h-30" id="al"/><g id="g"><use transform="matrix(0.06172839506172839,0,0,0.06172839506172839,0,0)" xlink:href="#aj"/><use transform="matrix(0.06172839506172839,0,0,0.06172839506172839,6.172839506172839,0)" xlink:href="#ak"/><use transform="matrix(0.06172839506172839,0,0,0.06172839506172839,20.98765432098765,0)" xlink:href="#al"/></g><path fill="#333" d="M249-183c0 48-29 72-75 77L221 0h-36l-43-103H65L45 0H11l48-248c83 2 190-17 190 65zm-34 3c0-55-74-39-127-41l-18 92c63-1 145 13 145-51" id="am"/><path fill="#333" d="M30-147c31-64 166-65 159 27C183-49 158 1 86 4 9 8 1-88 30-147zM88-20c53 0 68-48 68-100 0-31-11-51-44-50-52 1-68 46-68 97 0 32 13 53 44 53" id="an"/><path fill="#333" d="M6 0l50-261h32L37 0H6" id="ao"/><path fill="#333" d="M111-194c62-3 86 47 72 106H45c-7 38 6 69 45 68 27-1 43-14 53-32l24 11C152-15 129 4 87 4 38 3 12-23 12-71c0-70 32-119 99-123zm44 81c14-66-71-72-95-28-4 8-8 17-11 28h106" id="ap"/><g id="h"><use transform="matrix(0.06172839506172839,0,0,0.06172839506172839,0,0)" xlink:href="#am"/><use transform="matrix(0.06172839506172839,0,0,0.06172839506172839,15.987654320987653,0)" xlink:href="#an"/><use transform="matrix(0.06172839506172839,0,0,0.06172839506172839,28.333333333333332,0)" xlink:href="#ao"/><use transform="matrix(0.06172839506172839,0,0,0.06172839506172839,33.20987654320987,0)" xlink:href="#ap"/></g><path fill="#333" d="M16-82v-28h88v28H16" id="aq"/><g id="i"><use transform="matrix(0.06172839506172839,0,0,0.06172839506172839,0,0)" xlink:href="#aa"/><use transform="matrix(0.06172839506172839,0,0,0.06172839506172839,11.11111111111111,0)" xlink:href="#T"/><use transform="matrix(0.06172839506172839,0,0,0.06172839506172839,17.28395061728395,0)" xlink:href="#U"/><use transform="matrix(0.06172839506172839,0,0,0.06172839506172839,29.629629629629626,0)" xlink:href="#V"/><use transform="matrix(0.06172839506172839,0,0,0.06172839506172839,40.74074074074073,0)" xlink:href="#W"/><use transform="matrix(0.06172839506172839,0,0,0.06172839506172839,51.85185185185185,0)" xlink:href="#aa"/><use transform="matrix(0.06172839506172839,0,0,0.06172839506172839,62.96296296296296,0)" xlink:href="#T"/><use transform="matrix(0.06172839506172839,0,0,0.06172839506172839,69.1358024691358,0)" xlink:href="#U"/><use transform="matrix(0.06172839506172839,0,0,0.06172839506172839,81.48148148148148,0)" xlink:href="#T"/><use transform="matrix(0.06172839506172839,0,0,0.06172839506172839,87.65432098765432,0)" xlink:href="#X"/><use transform="matrix(0.06172839506172839,0,0,0.06172839506172839,100,0)" xlink:href="#aq"/><use transform="matrix(0.06172839506172839,0,0,0.06172839506172839,107.34567901234568,0)" xlink:href="#ai"/><use transform="matrix(0.06172839506172839,0,0,0.06172839506172839,112.22222222222223,0)" xlink:href="#ag"/><use transform="matrix(0.06172839506172839,0,0,0.06172839506172839,124.56790123456791,0)" xlink:href="#ad"/><use transform="matrix(0.06172839506172839,0,0,0.06172839506172839,136.9135802469136,0)" xlink:href="#aa"/></g><path fill="#333" d="M194-120c59 52 2 134-86 124-53-6-90-18-98-63l31-7c8 30 29 43 70 43 46 0 84-17 71-62-32-43-135-20-137-98-3-89 178-90 191-16l-30 9c-8-48-127-53-127 5 0 53 81 35 115 65" id="ar"/><path fill="#333" d="M148-71c0-36-31-44-71-41l5-28c46 3 81-6 81-50 0-23-15-35-39-35-30 0-49 17-56 41l-32-3c12-39 42-63 90-64 43 0 69 19 71 60 1 43-30 58-65 66 27 5 49 22 49 53 0 85-133 99-164 35-4-7-7-15-9-22l29-9c8 25 25 45 58 45 34 1 53-17 53-48" id="as"/><g id="j"><use transform="matrix(0.06172839506172839,0,0,0.06172839506172839,0,0)" xlink:href="#ar"/><use transform="matrix(0.06172839506172839,0,0,0.06172839506172839,14.814814814814813,0)" xlink:href="#as"/></g><path fill="#333" d="M219-77C219 17 104-2 11 0l48-248c73 2 169-15 169 57 0 38-24 54-60 60 29 5 51 21 51 54zm-26-111c0-44-62-31-105-33l-16 79c55 0 121 9 121-46zm-7 110c-1-49-69-36-119-38L50-27c61-1 137 12 136-51" id="at"/><path fill="#333" d="M67 3c-93-2-31-127-26-193h32L48-50c-3 39 53 32 70 12 30-34 30-101 43-152h32L157 0h-30c1-10 6-24 4-33-14 20-29 37-64 36" id="au"/><path fill="#333" d="M44-68c0 29 11 47 38 47 30 0 42-19 51-41l28 9C148-21 126 4 82 4 31 4 10-29 12-85c3-77 74-140 146-93 12 8 15 23 18 40l-31 5c-1-22-13-36-36-36-52 0-65 49-65 101" id="av"/><path fill="#333" d="M127 0L80-88 50-66 37 0H6l51-261h31L57-100l99-90h39l-93 82L161 0h-34" id="aw"/><path fill="#333" d="M51-54c-9 22 5 41 31 30L79-1C43 14 10-4 19-52l22-115H19l5-23h22l19-43h21l-9 43h35l-4 23H73" id="ax"/><g id="k"><use transform="matrix(0.06172839506172839,0,0,0.06172839506172839,0,0)" xlink:href="#at"/><use transform="matrix(0.06172839506172839,0,0,0.06172839506172839,14.814814814814813,0)" xlink:href="#au"/><use transform="matrix(0.06172839506172839,0,0,0.06172839506172839,27.160493827160494,0)" xlink:href="#av"/><use transform="matrix(0.06172839506172839,0,0,0.06172839506172839,38.27160493827161,0)" xlink:href="#aw"/><use transform="matrix(0.06172839506172839,0,0,0.06172839506172839,49.38271604938272,0)" xlink:href="#ap"/><use transform="matrix(0.06172839506172839,0,0,0.06172839506172839,61.7283950617284,0)" xlink:href="#ax"/></g><g id="l"><use transform="matrix(0.06172839506172839,0,0,0.06172839506172839,0,0)" xlink:href="#aa"/><use transform="matrix(0.06172839506172839,0,0,0.06172839506172839,11.11111111111111,0)" xlink:href="#T"/><use transform="matrix(0.06172839506172839,0,0,0.06172839506172839,17.28395061728395,0)" xlink:href="#U"/><use transform="matrix(0.06172839506172839,0,0,0.06172839506172839,29.629629629629626,0)" xlink:href="#V"/><use transform="matrix(0.06172839506172839,0,0,0.06172839506172839,40.74074074074073,0)" xlink:href="#W"/><use transform="matrix(0.06172839506172839,0,0,0.06172839506172839,51.85185185185185,0)" xlink:href="#aa"/><use transform="matrix(0.06172839506172839,0,0,0.06172839506172839,62.96296296296296,0)" xlink:href="#T"/><use transform="matrix(0.06172839506172839,0,0,0.06172839506172839,69.1358024691358,0)" xlink:href="#U"/><use transform="matrix(0.06172839506172839,0,0,0.06172839506172839,81.48148148148148,0)" xlink:href="#T"/><use transform="matrix(0.06172839506172839,0,0,0.06172839506172839,87.65432098765432,0)" xlink:href="#X"/><use transform="matrix(0.06172839506172839,0,0,0.06172839506172839,100,0)" xlink:href="#aq"/><use transform="matrix(0.06172839506172839,0,0,0.06172839506172839,107.34567901234568,0)" xlink:href="#af"/><use transform="matrix(0.06172839506172839,0,0,0.06172839506172839,112.22222222222223,0)" xlink:href="#ac"/><use transform="matrix(0.06172839506172839,0,0,0.06172839506172839,124.56790123456791,0)" xlink:href="#T"/><use transform="matrix(0.06172839506172839,0,0,0.06172839506172839,130.74074074074076,0)" xlink:href="#X"/><use transform="matrix(0.06172839506172839,0,0,0.06172839506172839,143.08641975308643,0)" xlink:href="#ad"/><use transform="matrix(0.06172839506172839,0,0,0.06172839506172839,155.4320987654321,0)" xlink:href="#ae"/><use transform="matrix(0.06172839506172839,0,0,0.06172839506172839,162.77777777777777,0)" xlink:href="#U"/><use transform="matrix(0.06172839506172839,0,0,0.06172839506172839,175.12345679012344,0)" xlink:href="#T"/><use transform="matrix(0.06172839506172839,0,0,0.06172839506172839,181.29629629629628,0)" xlink:href="#af"/><use transform="matrix(0.06172839506172839,0,0,0.06172839506172839,186.1728395061728,0)" xlink:href="#ag"/><use transform="matrix(0.06172839506172839,0,0,0.06172839506172839,198.51851851851848,0)" xlink:href="#ac"/></g><path fill="#333" d="M180 0L97-118 63-96 45 0H11l48-248h34L69-126c44-43 94-81 141-122h43L121-137 219 0h-39" id="ay"/><g id="m"><use transform="matrix(0.06172839506172839,0,0,0.06172839506172839,0,0)" xlink:href="#ay"/><use transform="matrix(0.06172839506172839,0,0,0.06172839506172839,14.814814814814813,0)" xlink:href="#al"/><use transform="matrix(0.06172839506172839,0,0,0.06172839506172839,33.2716049382716,0)" xlink:href="#ar"/></g><path fill="#333" d="M198-190L69 30C53 58 25 83-20 72c4-11-1-27 19-22 33-1 43-29 59-52L20-190h32L79-34l84-156h35" id="az"/><g id="n"><use transform="matrix(0.06172839506172839,0,0,0.06172839506172839,0,0)" xlink:href="#ay"/><use transform="matrix(0.06172839506172839,0,0,0.06172839506172839,14.814814814814813,0)" xlink:href="#ap"/><use transform="matrix(0.06172839506172839,0,0,0.06172839506172839,27.160493827160494,0)" xlink:href="#az"/></g><path fill="#333" d="M11 0l48-248h184l-5 28H87l-15 79h140l-5 27H67L50-27h158l-5 27H11" id="aA"/><path fill="#333" d="M89 0H52L20-190h33L74-25l89-165h34" id="aB"/><path fill="#333" d="M67-158c22-48 132-52 116 29L158 0h-32l25-140c3-38-53-32-70-12C52-117 51-52 38 0H6l36-190h30" id="aC"/><path fill="#333" d="M66-151c12-25 30-51 66-40l-6 26C45-176 58-65 38 0H6l36-190h30" id="aD"/><path fill="#333" d="M50-231l6-30h32l-6 30H50zM6 0l37-190h31L37 0H6" id="aE"/><path fill="#333" d="M133-28C103 26-5 8 13-77c13-62 24-115 90-117 29-1 46 15 56 35l19-102h32L160 0h-30zM45-64c-2 27 10 43 35 43 54-1 69-50 69-103 0-29-15-46-42-46-53-1-58 58-62 106" id="aF"/><path fill="#333" d="M103-194c29 0 47 14 56 36 2-11 5-23 8-32h30L160-5C157 61 82 97 21 62 9 55 4 45 1 30l28-7c7 42 83 31 92-3 4-16 9-38 13-55-13 20-29 36-62 36-40 0-60-25-60-64 0-71 23-131 91-131zm4 24c-53 0-58 54-61 104-2 27 10 44 36 44 49 0 65-50 67-102 1-29-15-46-42-46" id="aG"/><g id="o"><use transform="matrix(0.06172839506172839,0,0,0.06172839506172839,0,0)" xlink:href="#aA"/><use transform="matrix(0.06172839506172839,0,0,0.06172839506172839,14.814814814814813,0)" xlink:href="#aB"/><use transform="matrix(0.06172839506172839,0,0,0.06172839506172839,25.925925925925924,0)" xlink:href="#ap"/><use transform="matrix(0.06172839506172839,0,0,0.06172839506172839,38.2716049382716,0)" xlink:href="#aC"/><use transform="matrix(0.06172839506172839,0,0,0.06172839506172839,50.61728395061728,0)" xlink:href="#ax"/><use transform="matrix(0.06172839506172839,0,0,0.06172839506172839,56.79012345679012,0)" xlink:href="#at"/><use transform="matrix(0.06172839506172839,0,0,0.06172839506172839,71.60493827160494,0)" xlink:href="#aD"/><use transform="matrix(0.06172839506172839,0,0,0.06172839506172839,78.95061728395062,0)" xlink:href="#aE"/><use transform="matrix(0.06172839506172839,0,0,0.06172839506172839,83.82716049382717,0)" xlink:href="#aF"/><use transform="matrix(0.06172839506172839,0,0,0.06172839506172839,96.17283950617285,0)" xlink:href="#aG"/><use transform="matrix(0.06172839506172839,0,0,0.06172839506172839,108.51851851851853,0)" xlink:href="#ap"/></g><path fill="#333" d="M55-144c13 50 104 24 104 88C159 21 15 23 1-39l26-10c6 40 102 42 102-4-13-50-104-23-104-87 0-71 143-71 148-8l-29 4c-5-35-85-37-89 0" id="aH"/><g id="p"><use transform="matrix(0.06172839506172839,0,0,0.06172839506172839,0,0)" xlink:href="#am"/><use transform="matrix(0.06172839506172839,0,0,0.06172839506172839,15.987654320987653,0)" xlink:href="#au"/><use transform="matrix(0.06172839506172839,0,0,0.06172839506172839,28.333333333333332,0)" xlink:href="#ao"/><use transform="matrix(0.06172839506172839,0,0,0.06172839506172839,33.20987654320987,0)" xlink:href="#ap"/><use transform="matrix(0.06172839506172839,0,0,0.06172839506172839,45.55555555555555,0)" xlink:href="#aH"/></g><g id="q"><use transform="matrix(0.06172839506172839,0,0,0.06172839506172839,0,0)" xlink:href="#aa"/><use transform="matrix(0.06172839506172839,0,0,0.06172839506172839,11.11111111111111,0)" xlink:href="#T"/><use transform="matrix(0.06172839506172839,0,0,0.06172839506172839,17.28395061728395,0)" xlink:href="#U"/><use transform="matrix(0.06172839506172839,0,0,0.06172839506172839,29.629629629629626,0)" xlink:href="#V"/><use transform="matrix(0.06172839506172839,0,0,0.06172839506172839,40.74074074074073,0)" xlink:href="#W"/><use transform="matrix(0.06172839506172839,0,0,0.06172839506172839,51.85185185185185,0)" xlink:href="#aa"/><use transform="matrix(0.06172839506172839,0,0,0.06172839506172839,62.96296296296296,0)" xlink:href="#T"/><use transform="matrix(0.06172839506172839,0,0,0.06172839506172839,69.1358024691358,0)" xlink:href="#U"/><use transform="matrix(0.06172839506172839,0,0,0.06172839506172839,81.48148148148148,0)" xlink:href="#T"/><use transform="matrix(0.06172839506172839,0,0,0.06172839506172839,87.65432098765432,0)" xlink:href="#X"/><use transform="matrix(0.06172839506172839,0,0,0.06172839506172839,100,0)" xlink:href="#aq"/></g><path fill="#333" d="M108 0H70L1-190h34L89-25l56-165h34" id="aI"/><path fill="#333" d="M115-194c53 0 69 39 70 98 0 66-23 100-70 100C84 3 66-7 56-30L54 0H23l1-261h32v101c10-23 28-34 59-34zm-8 174c40 0 45-34 45-75 0-40-5-75-45-74-42 0-51 32-51 76 0 43 10 73 51 73" id="aJ"/><path fill="#333" d="M85-194c31 0 48 13 60 33l-1-100h32l1 261h-30c-2-10 0-23-3-31C134-8 116 4 85 4 32 4 16-35 15-94c0-66 23-100 70-100zm9 24c-40 0-46 34-46 75 0 40 6 74 45 74 42 0 51-32 51-76 0-42-9-74-50-73" id="aK"/><path fill="#333" d="M210-169c-67 3-38 105-44 169h-31v-121c0-29-5-50-35-48C34-165 62-65 56 0H25l-1-190h30c1 10-1 24 2 32 10-44 99-50 107 0 11-21 27-35 58-36 85-2 47 119 55 194h-31v-121c0-29-5-49-35-48" id="aL"/><g id="r"><use transform="matrix(0.06172839506172839,0,0,0.06172839506172839,0,0)" xlink:href="#X"/><use transform="matrix(0.06172839506172839,0,0,0.06172839506172839,12.345679012345679,0)" xlink:href="#aI"/><use transform="matrix(0.06172839506172839,0,0,0.06172839506172839,23.45679012345679,0)" xlink:href="#X"/><use transform="matrix(0.06172839506172839,0,0,0.06172839506172839,35.80246913580247,0)" xlink:href="#ac"/><use transform="matrix(0.06172839506172839,0,0,0.06172839506172839,48.148148148148145,0)" xlink:href="#T"/><use transform="matrix(0.06172839506172839,0,0,0.06172839506172839,54.32098765432099,0)" xlink:href="#aJ"/><use transform="matrix(0.06172839506172839,0,0,0.06172839506172839,66.66666666666667,0)" xlink:href="#ae"/><use transform="matrix(0.06172839506172839,0,0,0.06172839506172839,74.01234567901236,0)" xlink:href="#af"/><use transform="matrix(0.06172839506172839,0,0,0.06172839506172839,78.8888888888889,0)" xlink:href="#aK"/><use transform="matrix(0.06172839506172839,0,0,0.06172839506172839,91.23456790123458,0)" xlink:href="#ad"/><use transform="matrix(0.06172839506172839,0,0,0.06172839506172839,103.58024691358027,0)" xlink:href="#X"/><use transform="matrix(0.06172839506172839,0,0,0.06172839506172839,115.92592592592595,0)" xlink:href="#aq"/><use transform="matrix(0.06172839506172839,0,0,0.06172839506172839,123.27160493827164,0)" xlink:href="#aa"/><use transform="matrix(0.06172839506172839,0,0,0.06172839506172839,134.38271604938274,0)" xlink:href="#T"/><use transform="matrix(0.06172839506172839,0,0,0.06172839506172839,140.55555555555557,0)" xlink:href="#ae"/><use transform="matrix(0.06172839506172839,0,0,0.06172839506172839,147.90123456790124,0)" xlink:href="#X"/><use transform="matrix(0.06172839506172839,0,0,0.06172839506172839,160.2469135802469,0)" xlink:href="#U"/><use transform="matrix(0.06172839506172839,0,0,0.06172839506172839,172.59259259259258,0)" xlink:href="#aL"/></g><g id="s"><use transform="matrix(0.06172839506172839,0,0,0.06172839506172839,0,0)" xlink:href="#ay"/><use transform="matrix(0.06172839506172839,0,0,0.06172839506172839,14.814814814814813,0)" xlink:href="#aE"/><use transform="matrix(0.06172839506172839,0,0,0.06172839506172839,19.691358024691354,0)" xlink:href="#aC"/><use transform="matrix(0.06172839506172839,0,0,0.06172839506172839,32.03703703703703,0)" xlink:href="#ap"/><use transform="matrix(0.06172839506172839,0,0,0.06172839506172839,44.38271604938271,0)" xlink:href="#aH"/><use transform="matrix(0.06172839506172839,0,0,0.06172839506172839,55.49382716049382,0)" xlink:href="#aE"/><use transform="matrix(0.06172839506172839,0,0,0.06172839506172839,60.37037037037037,0)" xlink:href="#aH"/></g><path fill="#333" d="M87-220l-18 92h140l-5 28H64L45 0H11l48-248h178l-5 28H87" id="aM"/><path fill="#333" d="M67-158c15-20 31-36 64-36 94 0 33 127 27 194h-32l25-140c3-38-53-32-70-12C52-117 51-51 37 0H6l51-261h31" id="aN"/><g id="t"><use transform="matrix(0.06172839506172839,0,0,0.06172839506172839,0,0)" xlink:href="#aM"/><use transform="matrix(0.06172839506172839,0,0,0.06172839506172839,13.518518518518517,0)" xlink:href="#aE"/><use transform="matrix(0.06172839506172839,0,0,0.06172839506172839,18.39506172839506,0)" xlink:href="#aD"/><use transform="matrix(0.06172839506172839,0,0,0.06172839506172839,25.74074074074074,0)" xlink:href="#ap"/><use transform="matrix(0.06172839506172839,0,0,0.06172839506172839,38.08641975308642,0)" xlink:href="#aN"/><use transform="matrix(0.06172839506172839,0,0,0.06172839506172839,50.432098765432094,0)" xlink:href="#an"/><use transform="matrix(0.06172839506172839,0,0,0.06172839506172839,62.77777777777777,0)" xlink:href="#aH"/><use transform="matrix(0.06172839506172839,0,0,0.06172839506172839,73.88888888888889,0)" xlink:href="#ap"/></g><path fill="#333" d="M30 0v-248h187v28H63v79h144v27H63v87h162V0H30" id="aO"/><path fill="#333" d="M160-131c35 5 61 23 61 61C221 17 115-2 30 0v-248c76 3 177-17 177 60 0 33-19 50-47 57zm-97-11c50-1 110 9 110-42 0-47-63-36-110-37v79zm0 115c55-2 124 14 124-45 0-56-70-42-124-44v89" id="aP"/><g id="u"><use transform="matrix(0.06172839506172839,0,0,0.06172839506172839,0,0)" xlink:href="#aO"/><use transform="matrix(0.06172839506172839,0,0,0.06172839506172839,14.814814814814813,0)" xlink:href="#aI"/><use transform="matrix(0.06172839506172839,0,0,0.06172839506172839,25.925925925925924,0)" xlink:href="#X"/><use transform="matrix(0.06172839506172839,0,0,0.06172839506172839,38.2716049382716,0)" xlink:href="#ac"/><use transform="matrix(0.06172839506172839,0,0,0.06172839506172839,50.61728395061728,0)" xlink:href="#T"/><use transform="matrix(0.06172839506172839,0,0,0.06172839506172839,56.79012345679012,0)" xlink:href="#aP"/><use transform="matrix(0.06172839506172839,0,0,0.06172839506172839,71.60493827160494,0)" xlink:href="#ae"/><use transform="matrix(0.06172839506172839,0,0,0.06172839506172839,78.95061728395062,0)" xlink:href="#af"/><use transform="matrix(0.06172839506172839,0,0,0.06172839506172839,83.82716049382717,0)" xlink:href="#aK"/><use transform="matrix(0.06172839506172839,0,0,0.06172839506172839,96.17283950617285,0)" xlink:href="#ad"/><use transform="matrix(0.06172839506172839,0,0,0.06172839506172839,108.51851851851853,0)" xlink:href="#X"/><use transform="matrix(0.06172839506172839,0,0,0.06172839506172839,120.86419753086422,0)" xlink:href="#ah"/><use transform="matrix(0.06172839506172839,0,0,0.06172839506172839,136.85185185185188,0)" xlink:href="#ag"/><use transform="matrix(0.06172839506172839,0,0,0.06172839506172839,149.19753086419755,0)" xlink:href="#ai"/><use transform="matrix(0.06172839506172839,0,0,0.06172839506172839,154.07407407407408,0)" xlink:href="#X"/></g><path fill="#333" d="M63-220v92h138v28H63V0H30v-248h175v28H63" id="aQ"/><path fill="#333" d="M106-169C34-169 62-67 57 0H25v-261h32l-1 103c12-21 28-36 61-36 89 0 53 116 60 194h-32v-121c2-32-8-49-39-48" id="aR"/><g id="v"><use transform="matrix(0.06172839506172839,0,0,0.06172839506172839,0,0)" xlink:href="#aQ"/><use transform="matrix(0.06172839506172839,0,0,0.06172839506172839,13.518518518518517,0)" xlink:href="#af"/><use transform="matrix(0.06172839506172839,0,0,0.06172839506172839,18.39506172839506,0)" xlink:href="#ae"/><use transform="matrix(0.06172839506172839,0,0,0.06172839506172839,25.74074074074074,0)" xlink:href="#X"/><use transform="matrix(0.06172839506172839,0,0,0.06172839506172839,38.08641975308642,0)" xlink:href="#aR"/><use transform="matrix(0.06172839506172839,0,0,0.06172839506172839,50.432098765432094,0)" xlink:href="#ag"/><use transform="matrix(0.06172839506172839,0,0,0.06172839506172839,62.77777777777777,0)" xlink:href="#aa"/><use transform="matrix(0.06172839506172839,0,0,0.06172839506172839,73.88888888888889,0)" xlink:href="#X"/><use transform="matrix(0.06172839506172839,0,0,0.06172839506172839,86.23456790123457,0)" xlink:href="#ah"/><use transform="matrix(0.06172839506172839,0,0,0.06172839506172839,102.22222222222223,0)" xlink:href="#ag"/><use transform="matrix(0.06172839506172839,0,0,0.06172839506172839,114.56790123456791,0)" xlink:href="#ai"/><use transform="matrix(0.06172839506172839,0,0,0.06172839506172839,119.44444444444446,0)" xlink:href="#X"/></g><g id="w"><use transform="matrix(0.06172839506172839,0,0,0.06172839506172839,0,0)" xlink:href="#S"/><use transform="matrix(0.06172839506172839,0,0,0.06172839506172839,14.814814814814813,0)" xlink:href="#T"/><use transform="matrix(0.06172839506172839,0,0,0.06172839506172839,20.98765432098765,0)" xlink:href="#U"/><use transform="matrix(0.06172839506172839,0,0,0.06172839506172839,33.33333333333333,0)" xlink:href="#V"/><use transform="matrix(0.06172839506172839,0,0,0.06172839506172839,44.44444444444444,0)" xlink:href="#W"/><use transform="matrix(0.06172839506172839,0,0,0.06172839506172839,55.55555555555556,0)" xlink:href="#S"/><use transform="matrix(0.06172839506172839,0,0,0.06172839506172839,70.37037037037037,0)" xlink:href="#T"/><use transform="matrix(0.06172839506172839,0,0,0.06172839506172839,76.5432098765432,0)" xlink:href="#U"/><use transform="matrix(0.06172839506172839,0,0,0.06172839506172839,88.88888888888889,0)" xlink:href="#T"/><use transform="matrix(0.06172839506172839,0,0,0.06172839506172839,95.06172839506172,0)" xlink:href="#X"/></g><g id="x"><use transform="matrix(0.06172839506172839,0,0,0.06172839506172839,0,0)" xlink:href="#Y"/><use transform="matrix(0.06172839506172839,0,0,0.06172839506172839,14.814814814814813,0)" xlink:href="#ad"/><use transform="matrix(0.06172839506172839,0,0,0.06172839506172839,27.160493827160494,0)" xlink:href="#X"/><use transform="matrix(0.06172839506172839,0,0,0.06172839506172839,39.50617283950617,0)" xlink:href="#ac"/><use transform="matrix(0.06172839506172839,0,0,0.06172839506172839,51.85185185185185,0)" xlink:href="#T"/></g><path fill="#333" d="M119 0H84L31-248h34l41 218 126-218h36" id="aS"/><path fill="#333" d="M238-179c0 84-86 86-175 82L45 0H11l48-248c82 0 179-12 179 69zm-34 1c0-53-64-42-116-43l-19 98c63 0 135 9 135-55" id="aT"/><path fill="#333" d="M125-24c46 0 70-25 89-51l25 16C214-24 183 4 123 4 8 4-5-146 60-208c32-50 158-61 191-5 5 7 9 14 11 22l-32 10c-9-28-33-43-69-43-74 0-108 51-108 125 0 46 24 75 72 75" id="aU"/><g id="y"><use transform="matrix(0.06172839506172839,0,0,0.06172839506172839,0,0)" xlink:href="#aS"/><use transform="matrix(0.06172839506172839,0,0,0.06172839506172839,14.814814814814813,0)" xlink:href="#aT"/><use transform="matrix(0.06172839506172839,0,0,0.06172839506172839,29.629629629629626,0)" xlink:href="#aU"/></g><path fill="#333" d="M188 0h-37l-8-164L71 0H34L18-190h31l8 164 75-164h34l8 164 74-164h31" id="aV"/><g id="z"><use transform="matrix(0.06172839506172839,0,0,0.06172839506172839,0,0)" xlink:href="#aM"/><use transform="matrix(0.06172839506172839,0,0,0.06172839506172839,13.518518518518517,0)" xlink:href="#ao"/><use transform="matrix(0.06172839506172839,0,0,0.06172839506172839,18.39506172839506,0)" xlink:href="#an"/><use transform="matrix(0.06172839506172839,0,0,0.06172839506172839,30.74074074074074,0)" xlink:href="#aV"/></g><g id="A"><use transform="matrix(0.06172839506172839,0,0,0.06172839506172839,0,0)" xlink:href="#ao"/><use transform="matrix(0.06172839506172839,0,0,0.06172839506172839,4.876543209876543,0)" xlink:href="#an"/><use transform="matrix(0.06172839506172839,0,0,0.06172839506172839,17.22222222222222,0)" xlink:href="#aG"/><use transform="matrix(0.06172839506172839,0,0,0.06172839506172839,29.5679012345679,0)" xlink:href="#aH"/></g><path fill="#147eba" d="M185-189c-5-48-123-54-124 2 14 75 158 14 163 119 3 78-121 87-175 55-17-10-28-26-33-46l33-7c5 56 141 63 141-1 0-78-155-14-162-118-5-82 145-84 179-34 5 7 8 16 11 25" id="aW"/><path fill="#147eba" d="M96-169c-40 0-48 33-48 73s9 75 48 75c24 0 41-14 43-38l32 2c-6 37-31 61-74 61-59 0-76-41-82-99-10-93 101-131 147-64 4 7 5 14 7 22l-32 3c-4-21-16-35-41-35" id="aX"/><path fill="#147eba" d="M85-194c31 0 48 13 60 33l-1-100h32l1 261h-30c-2-10 0-23-3-31C134-8 116 4 85 4 32 4 16-35 15-94c0-66 23-100 70-100zm9 24c-40 0-46 34-46 75 0 40 6 74 45 74 42 0 51-32 51-76 0-42-9-74-50-73" id="aY"/><path fill="#147eba" d="M114-163C36-179 61-72 57 0H25l-1-190h30c1 12-1 29 2 39 6-27 23-49 58-41v29" id="aZ"/><path fill="#147eba" d="M179-190L93 31C79 59 56 82 12 73V49c39 6 53-20 64-50L1-190h34L92-34l54-156h33" id="ba"/><g id="B"><use transform="matrix(0.05,0,0,0.05,0,0)" xlink:href="#aW"/><use transform="matrix(0.05,0,0,0.05,12,0)" xlink:href="#H"/><use transform="matrix(0.05,0,0,0.05,22,0)" xlink:href="#aX"/><use transform="matrix(0.05,0,0,0.05,31,0)" xlink:href="#J"/><use transform="matrix(0.05,0,0,0.05,41,0)" xlink:href="#F"/><use transform="matrix(0.05,0,0,0.05,51,0)" xlink:href="#aY"/><use transform="matrix(0.05,0,0,0.05,61,0)" xlink:href="#D"/><use transform="matrix(0.05,0,0,0.05,71,0)" xlink:href="#aZ"/><use transform="matrix(0.05,0,0,0.05,76.95,0)" xlink:href="#ba"/></g></defs></g></svg>