<?xml version="1.0" encoding="utf-8"?>
<!-- Generator: Adobe Illustrator 22.1.0, SVG Export Plug-In . SVG Version: 6.00 Build 0)  -->
<svg version="1.1" id="Layer_1" xmlns="http://www.w3.org/2000/svg" xmlns:xlink="http://www.w3.org/1999/xlink" x="0px" y="0px"
	 viewBox="0 0 1157.2 274.9" style="enable-background:new 0 0 1157.2 274.9;" xml:space="preserve">
<style type="text/css">
	.st0{fill:#0289FF;}
	.st1{fill:#0F1D2D;}
	.st2{fill:#0E1D2D;}
	.st3{fill:#667782;}
</style>
<g>
	<polygon class="st0" points="707.4,201.9 682.8,162.1 670.4,174.1 670.4,201.9 651.7,201.9 651.7,72.4 670.4,72.4 670.4,151.5 
		706.2,116.3 729.4,116.3 696,148.8 728.5,201.9 707.4,201.9 	"/>
	<g>
		<path class="st0" d="M388.4,101.8c-5.1-7.7-13.4-12.4-25.6-12.4c-14,0-21.2,8.1-21.2,18.9c0,8.9,4.9,13.8,15.7,17.3l16.5,4.9
			c20.7,6.3,30.5,17.1,30.5,34c0,23.4-17.7,38-44.3,38c-28.3,0-39.5-13.4-44.5-23.6l14.4-11.2c4.5,9.2,11.2,17.3,30.1,17.3
			c15.3,0,23.2-7.7,23.2-18.9c0-9.6-6.1-14.4-16.7-17.7l-16.5-4.9c-20.5-6.3-29.7-17.9-29.7-34c0-19.5,12.8-37.6,42.3-37.6
			c21.2,0,33.8,8.9,40.1,18.7L388.4,101.8L388.4,101.8z"/>
		<path class="st0" d="M444.1,174c0,7.1,3.5,11,10.4,11c3.5,0,7.7-1,11-2.2l1,16.5c-4.3,1.6-11.4,3.3-17.9,3.3
			c-16.7,0-23.4-10.8-23.4-26V131h-15.7v-14.2l15.7-1.8V93.8l18.9-3.1V115H465V131h-20.9V174L444.1,174z"/>
		<path class="st0" d="M530.9,200.6v-10.4c-5.5,6.1-14.4,12.4-27.9,12.4c-15.7,0-25.6-9.4-25.6-24.6c0-18.1,15.9-26.2,40.5-28.1
			l12-1.2V142c0-8.5-3.7-13.4-15.7-13.4c-10.6,0-15.7,3.7-15.7,9.2v4.1h-16.5c-0.2-1.8-0.4-3.9-0.4-5.9c0-13.2,12-22.8,33.6-22.8
			c20.7,0,33.4,8.9,33.4,28.5v59H530.9L530.9,200.6z M509.4,187.8c8.3,0,15.7-3.9,20.3-8.7v-18.3l-11.8,1.6
			c-13.6,1.8-21.4,6.1-21.4,14.6C496.8,183.9,501,187.8,509.4,187.8L509.4,187.8z"/>
		<path class="st0" d="M604,113.2c15.3,0,27.1,6.1,33.2,18.1l-13.4,9.6c-3.9-6.9-9.8-11-18.3-11c-15.3,0-20.7,11.8-20.7,27.9
			c0,16.1,5.7,27.9,20.7,27.9c8.5,0,14.6-4.1,18.5-11l13.2,9.6c-6.1,12-18.1,18.1-33.2,18.1c-27.5,0-38.8-20.1-38.8-44.7
			C565.3,133.3,576.7,113.2,604,113.2L604,113.2z"/>
		<path class="st1" d="M816.4,101.8c-5.1-7.7-13.4-12.4-25.6-12.4c-14,0-21.2,8.1-21.2,18.9c0,8.9,4.9,13.8,15.7,17.3l16.5,4.9
			c20.7,6.3,30.5,17.1,30.5,34c0,23.4-17.7,38-44.3,38c-28.3,0-39.5-13.4-44.5-23.6l14.4-11.2c4.5,9.2,11.2,17.3,30.1,17.3
			c15.3,0,23.2-7.7,23.2-18.9c0-9.6-6.1-14.4-16.7-17.7l-16.5-4.9c-20.5-6.3-29.7-17.9-29.7-34c0-19.5,12.8-37.6,42.3-37.6
			c21.2,0,33.8,8.9,40.1,18.7L816.4,101.8L816.4,101.8z"/>
		<path class="st1" d="M872.2,174c0,7.1,3.5,11,10.4,11c3.5,0,7.7-1,11-2.2l1,16.5c-4.3,1.6-11.4,3.3-17.9,3.3
			c-16.7,0-23.4-10.8-23.4-26V131h-15.7v-14.2l15.7-1.8V93.8l18.9-3.1V115h20.9V131h-20.9V174L872.2,174z"/>
		<path class="st1" d="M959,200.6v-10.4c-5.5,6.1-14.4,12.4-27.9,12.4c-15.7,0-25.6-9.4-25.6-24.6c0-18.1,15.9-26.2,40.5-28.1
			l12-1.2V142c0-8.5-3.7-13.4-15.7-13.4c-10.6,0-15.7,3.7-15.7,9.2v4.1h-16.5c-0.2-1.8-0.4-3.9-0.4-5.9c0-13.2,12-22.8,33.6-22.8
			c20.7,0,33.4,8.9,33.4,28.5v59H959L959,200.6z M937.5,187.8c8.3,0,15.7-3.9,20.3-8.7v-18.3l-11.8,1.6
			c-13.6,1.8-21.4,6.1-21.4,14.6C924.6,183.9,929.1,187.8,937.5,187.8L937.5,187.8z"/>
		<path class="st1" d="M1023.9,174c0,7.1,3.5,11,10.4,11c3.5,0,7.7-1,11-2.2l1,16.5c-4.3,1.6-11.4,3.3-17.9,3.3
			c-16.7,0-23.4-10.8-23.4-26V131h-15.7v-14.2l15.7-1.8V93.8l18.9-3.1V115h20.9V131h-20.9V174L1023.9,174z"/>
		<path class="st1" d="M1118.7,177.8l8.9,12.4c-6.1,6.5-17.9,12.4-31.3,12.4c-28.7,0-40.7-18.7-40.7-44.7
			c0-24.6,12.8-44.7,38.8-44.7c25.2,0,35,18.1,35,36.6c0,4.3-0.4,10.6-1.2,14h-53.5c0.4,13.6,7.1,22.6,21.6,22.6
			C1103.6,186.2,1112.2,183.7,1118.7,177.8L1118.7,177.8z M1111.8,149.8c0.2-1.2,0.2-2.4,0.2-3.3c0-11.4-7.1-18.1-17.5-18.1
			c-13.4,0-18.9,9.4-19.7,21.4H1111.8L1111.8,149.8z"/>
	</g>
	<g>
		<path class="st2" d="M69.1,94.4l71-41l71,41l-66.6,38.4c-2.7,1.6-6.1,1.6-8.8,0L69.1,94.4z"/>
		<g>
			<path class="st2" d="M135.7,149.8l-46.4-26.8l-20.2,11.7l66.6,38.4c2.7,1.6,6.1,1.6,8.8,0l66.6-38.4l-20.2-11.7l-46.4,26.8
				C141.8,151.4,138.4,151.4,135.7,149.8z"/>
			<path class="st2" d="M135.7,191l-46.4-26.8l-20.2,11.7l66.6,38.4c2.7,1.6,6.1,1.6,8.8,0l66.6-38.4l-20.2-11.7L144.6,191
				C141.8,192.6,138.4,192.6,135.7,191z"/>
			<path class="st3" d="M27.7,137.5c0,19.8,5.2,38.4,14.2,54.5l12.6-7.3l0-11.5c0-3.1,1.7-6,4.4-7.6l15.9-9.2l-15.4-8.9
				c-2.7-1.6-4.4-4.5-4.4-7.6l0-8c0-3.1,1.6-6.1,4.4-7.6l15.3-9l-15.2-8.8c-2.7-1.6-4.4-4.5-4.4-7.6l0-7c0-3.2,1.7-6.1,4.4-7.7
				l72.5-41.7V26C73.8,29.9,27.7,78.4,27.7,137.5z"/>
			<path class="st3" d="M252,137.3c0,19.8-5.2,38.4-14.2,54.5l-12.6-7.3l0-11.5c0-3.1-1.7-6-4.4-7.6l-15.9-9.2l15.4-8.9
				c2.7-1.6,4.4-4.5,4.4-7.6l0-8c0-3.1-1.6-6.1-4.4-7.6l-15.3-9l15.2-8.8c2.7-1.6,4.4-4.5,4.4-7.6l0-7c0-3.2-1.7-6.1-4.4-7.7
				l-72.5-41.7V25.7C205.9,29.6,252,78.2,252,137.3z"/>
			<g>
				<path class="st3" d="M139.8,249.2c36.8,0,69.5-17.8,89.9-45.2l-19.2-11l-65.9,37.9c-2.7,1.6-6.1,1.6-8.8,0l-66.6-38.3l-12.2,7
					l-1.4,0.8l0,0l-5.9,3.4C70.2,231.3,102.9,249.2,139.8,249.2z"/>
			</g>
		</g>
	</g>
</g>
</svg>
